<?xml version="1.0" encoding="UTF-8" standalone="no"?>
<svg
   width="163.48509"
   height="309.91455"
   version="1.1"
   id="svg1182"
   sodipodi:docname="openfields_verticle.svg"
   inkscape:version="1.2.1 (9c6d41e410, 2022-07-14, custom)"
   inkscape:export-filename="openfields_verticle.png"
   inkscape:export-xdpi="96"
   inkscape:export-ydpi="96"
   xmlns:inkscape="http://www.inkscape.org/namespaces/inkscape"
   xmlns:sodipodi="http://sodipodi.sourceforge.net/DTD/sodipodi-0.dtd"
   xmlns="http://www.w3.org/2000/svg"
   xmlns:svg="http://www.w3.org/2000/svg">
  <defs
     id="defs1186">
    <rect
       x="696.42749"
       y="467.28436"
       width="254.90767"
       height="136.27881"
       id="rect568" />
  </defs>
  <sodipodi:namedview
     id="namedview1184"
     pagecolor="#ffffff"
     bordercolor="#666666"
     borderopacity="1.0"
     inkscape:pageshadow="2"
     inkscape:pageopacity="0.0"
     inkscape:pagecheckerboard="0"
     showgrid="false"
     inkscape:zoom="1.1688697"
     inkscape:cx="190.35484"
     inkscape:cy="173.24429"
     inkscape:window-width="1914"
     inkscape:window-height="1133"
     inkscape:window-x="0"
     inkscape:window-y="30"
     inkscape:window-maximized="1"
     inkscape:current-layer="svg1182"
     inkscape:showpageshadow="2"
     inkscape:deskcolor="#d1d1d1" />
  <g
     id="g8212"
     transform="translate(32.055555,-51.792837)">
    <path
       style="display:inline;fill:none;fill-rule:evenodd;stroke:#000000;stroke-width:0.888585px;stroke-linecap:butt;stroke-linejoin:miter;stroke-opacity:1"
       d="M 89.149898,144.84951 130.94537,99.549564"
       id="path1267-4"
       inkscape:connector-type="polyline"
       inkscape:connector-curvature="0" />
    <path
       style="display:inline;fill:none;fill-rule:evenodd;stroke:#000000;stroke-width:0.858346;stroke-linecap:butt;stroke-linejoin:miter;stroke-miterlimit:4;stroke-dasharray:none;stroke-opacity:1"
       d="M 34.957924,114.59725 49.887405,99.116435"
       id="path1267-4-8"
       inkscape:connector-type="polyline"
       inkscape:connector-curvature="0" />
    <path
       style="display:inline;fill:none;fill-rule:evenodd;stroke:#000000;stroke-width:0.704254px;stroke-linecap:butt;stroke-linejoin:miter;stroke-opacity:1"
       d="M 50.052786,99.114799 103.9765,99.551712"
       id="path1267-4-7"
       inkscape:connector-type="polyline"
       inkscape:connector-curvature="0" />
    <path
       style="display:inline;fill:none;fill-rule:evenodd;stroke:#000000;stroke-width:0.888585px;stroke-linecap:butt;stroke-linejoin:miter;stroke-opacity:1"
       d="M 89.255642,115.2502 131.05111,69.950263"
       id="path1267-4-75"
       inkscape:connector-type="polyline"
       inkscape:connector-curvature="0" />
    <path
       style="display:inline;fill:none;fill-rule:evenodd;stroke:#000000;stroke-width:0.889787px;stroke-linecap:butt;stroke-linejoin:miter;stroke-opacity:1"
       d="M 8.2121284,114.86682 50.102789,69.547112"
       id="path1267-4-8-3"
       inkscape:connector-type="polyline"
       inkscape:connector-curvature="0" />
    <path
       style="display:inline;fill:none;fill-rule:evenodd;stroke:#000000;stroke-width:0.858346px;stroke-linecap:butt;stroke-linejoin:miter;stroke-opacity:1"
       d="m 50.10276,69.547112 80.89758,0.432624"
       id="path1267-4-7-8"
       inkscape:connector-type="polyline"
       inkscape:connector-curvature="0" />
    <path
       style="display:inline;fill:none;fill-rule:evenodd;stroke:#000000;stroke-width:0.858346px;stroke-linecap:butt;stroke-linejoin:miter;stroke-opacity:1"
       d="m 8.3030941,144.38743 80.8975769,0.43261"
       id="path1267-4-7-9"
       inkscape:connector-type="polyline"
       inkscape:connector-curvature="0" />
    <path
       style="display:inline;fill:none;fill-rule:evenodd;stroke:#000000;stroke-width:0.858346px;stroke-linecap:butt;stroke-linejoin:miter;stroke-opacity:1"
       d="m 8.2121284,114.86682 80.8975776,0.43262"
       id="path1267-4-7-9-8"
       inkscape:connector-type="polyline"
       inkscape:connector-curvature="0" />
    <path
       style="fill:none;stroke:#000000;stroke-width:0.858346px;stroke-linecap:butt;stroke-linejoin:miter;stroke-opacity:1"
       d="m 8.1571291,144.43666 0.054999,-29.56984"
       id="path3471"
       sodipodi:nodetypes="cc" />
    <path
       style="fill:none;stroke:#000000;stroke-width:0.858346px;stroke-linecap:butt;stroke-linejoin:miter;stroke-opacity:1"
       d="m 89.200671,144.82004 0.05497,-29.56983"
       id="path3471-8"
       sodipodi:nodetypes="cc" />
    <path
       style="fill:none;stroke:#000000;stroke-width:0.858346px;stroke-linecap:butt;stroke-linejoin:miter;stroke-opacity:1"
       d="m 130.94537,99.549564 0.055,-29.569835"
       id="path3471-5"
       sodipodi:nodetypes="cc" />
    <path
       style="fill:none;stroke:#000000;stroke-width:0.858346px;stroke-linecap:butt;stroke-linejoin:miter;stroke-opacity:1"
       d="m 50.052786,99.114799 0.05497,-29.569834"
       id="path3471-9"
       sodipodi:nodetypes="cc" />
    <path
       style="fill:#d3d7cf;fill-opacity:1;stroke:#1b1bcb;stroke-width:0.189148;stroke-linecap:round;stroke-miterlimit:4;stroke-dasharray:none;stroke-dashoffset:0"
       d="m 59.002361,144.22292 c -14.29322,-0.0744 -31.453038,-0.18463 -38.132931,-0.24503 l -12.1452588,-0.1098 v -14.25748 -14.25748 l 25.0860598,0.11188 c 13.797332,0.0615 31.792469,0.16186 39.989193,0.22296 l 14.903134,0.11108 v 14.30765 14.30765 l -1.856262,-0.0281 c -1.020944,-0.0155 -13.550715,-0.0889 -27.843935,-0.16333 z"
       id="path5328" />
    <path
       style="fill:#d3d7cf;fill-opacity:1;stroke:#1b1bcb;stroke-width:0.189148;stroke-linecap:round;stroke-miterlimit:4;stroke-dasharray:none;stroke-dashoffset:0"
       d="m 15.990112,114.43806 c -3.52955,-0.0259 -6.4173638,-0.0806 -6.4173638,-0.12135 0,-0.076 39.3590228,-42.711379 39.6964218,-43.000907 0.107621,-0.09235 0.184167,5.693552 0.180717,13.660128 l -0.006,13.82034 -7.499079,7.757599 c -4.124492,4.26668 -7.457439,7.81452 -7.406546,7.88409 0.08671,0.11853 -2.444776,0.11854 -18.548167,10e-5 z"
       id="path5367" />
    <path
       style="fill:#d3d7cf;fill-opacity:1;stroke:#1b1bcb;stroke-width:0.189148;stroke-linecap:round;stroke-miterlimit:4;stroke-dasharray:none;stroke-dashoffset:0"
       d="m 84.77789,99.031006 c -9.334348,-0.07643 -20.814005,-0.18839 -25.510348,-0.2488 L 50.728735,98.67237 V 84.337667 70.002966 l 23.070689,0.127688 c 12.688878,0.07023 30.479606,0.173996 39.534946,0.230593 l 16.46426,0.102906 -13.23014,14.334702 -13.23014,14.334702 -0.79447,0.01821 c -0.43694,0.01002 -8.431643,-0.04433 -17.76599,-0.120758 z"
       id="path5406" />
    <path
       style="fill:#d3d7cf;fill-opacity:1;stroke:#1b1bcb;stroke-width:0.189148;stroke-linecap:round;stroke-miterlimit:4;stroke-dasharray:none;stroke-dashoffset:0"
       d="M 89.76328,129.42633 V 115.55136 L 109.8427,93.766653 c 11.04368,-11.981589 20.21445,-21.898543 20.3795,-22.037673 0.25877,-0.218129 0.27982,1.674665 0.15289,13.74445 l -0.1472,13.997415 -20.05408,21.755015 c -11.029748,11.96526 -20.134287,21.82712 -20.232308,21.91523 -0.09802,0.0881 -0.178222,-6.08352 -0.178222,-13.71476 z"
       id="path5445" />
  </g>
  <g
     id="g8194"
     transform="translate(-104.35265,56.766803)">
    <path
       style="display:inline;fill:none;fill-rule:evenodd;stroke:#000000;stroke-width:0.888585px;stroke-linecap:butt;stroke-linejoin:miter;stroke-opacity:1"
       d="M 225.5581,144.51896 267.35356,99.21902"
       id="path1267-4-5"
       inkscape:connector-type="polyline"
       inkscape:connector-curvature="0" />
    <path
       style="display:inline;fill:none;fill-rule:evenodd;stroke:#000000;stroke-width:0.858346;stroke-linecap:butt;stroke-linejoin:miter;stroke-miterlimit:4;stroke-dasharray:none;stroke-opacity:1"
       d="M 171.36612,114.2667 186.2956,98.785891"
       id="path1267-4-8-4"
       inkscape:connector-type="polyline"
       inkscape:connector-curvature="0" />
    <path
       style="display:inline;fill:none;fill-rule:evenodd;stroke:#000000;stroke-width:0.704254px;stroke-linecap:butt;stroke-linejoin:miter;stroke-opacity:1"
       d="m 186.46098,98.784253 53.92372,0.43691"
       id="path1267-4-7-81"
       inkscape:connector-type="polyline"
       inkscape:connector-curvature="0" />
    <path
       style="display:inline;fill:none;fill-rule:evenodd;stroke:#000000;stroke-width:0.888585px;stroke-linecap:butt;stroke-linejoin:miter;stroke-opacity:1"
       d="M 225.66384,114.91965 267.45931,69.619715"
       id="path1267-4-75-2"
       inkscape:connector-type="polyline"
       inkscape:connector-curvature="0" />
    <path
       style="display:inline;fill:none;fill-rule:evenodd;stroke:#000000;stroke-width:0.889787px;stroke-linecap:butt;stroke-linejoin:miter;stroke-opacity:1"
       d="M 144.62033,114.53628 186.51099,69.216564"
       id="path1267-4-8-3-8"
       inkscape:connector-type="polyline"
       inkscape:connector-curvature="0" />
    <path
       style="display:inline;fill:none;fill-rule:evenodd;stroke:#000000;stroke-width:0.858346px;stroke-linecap:butt;stroke-linejoin:miter;stroke-opacity:1"
       d="m 186.51096,69.216564 80.89757,0.432624"
       id="path1267-4-7-8-9"
       inkscape:connector-type="polyline"
       inkscape:connector-curvature="0" />
    <path
       style="display:inline;fill:none;fill-rule:evenodd;stroke:#000000;stroke-width:0.858346px;stroke-linecap:butt;stroke-linejoin:miter;stroke-opacity:1"
       d="m 144.71129,144.05688 80.89758,0.43261"
       id="path1267-4-7-9-3"
       inkscape:connector-type="polyline"
       inkscape:connector-curvature="0" />
    <path
       style="fill:none;stroke:#000000;stroke-width:0.858346px;stroke-linecap:butt;stroke-linejoin:miter;stroke-opacity:1"
       d="m 144.56533,144.10611 0.055,-29.56983"
       id="path3471-80"
       sodipodi:nodetypes="cc" />
    <path
       style="fill:none;stroke:#000000;stroke-width:0.858346px;stroke-linecap:butt;stroke-linejoin:miter;stroke-opacity:1"
       d="m 225.60887,144.48949 0.055,-29.56983"
       id="path3471-8-2"
       sodipodi:nodetypes="cc" />
    <path
       style="fill:none;stroke:#000000;stroke-width:0.858346px;stroke-linecap:butt;stroke-linejoin:miter;stroke-opacity:1"
       d="m 267.35356,99.21902 0.055,-29.56984"
       id="path3471-5-1"
       sodipodi:nodetypes="cc" />
    <path
       style="fill:none;stroke:#000000;stroke-width:0.858346px;stroke-linecap:butt;stroke-linejoin:miter;stroke-opacity:1"
       d="m 186.46098,98.784253 0.055,-29.569836"
       id="path3471-9-0"
       sodipodi:nodetypes="cc" />
    <path
       style="fill:#d3d7cf;fill-opacity:1;stroke:#1b1bcb;stroke-width:0.189148;stroke-linecap:round;stroke-miterlimit:4;stroke-dasharray:none;stroke-dashoffset:0"
       d="m 152.39831,114.10751 c -3.52955,-0.0259 -6.41736,-0.0806 -6.41736,-0.12135 0,-0.076 39.35902,-42.711377 39.69642,-43.000906 0.10762,-0.09235 0.18417,5.693552 0.18072,13.660133 l -0.006,13.820333 -7.49908,7.75761 c -4.12449,4.26668 -7.45744,7.81451 -7.40655,7.88408 0.0867,0.11853 -2.44477,0.11854 -18.54816,1e-4 z"
       id="path5367-1" />
    <path
       style="fill:#d3d7cf;fill-opacity:1;stroke:#1b1bcb;stroke-width:0.189148;stroke-linecap:round;stroke-miterlimit:4;stroke-dasharray:none;stroke-dashoffset:0"
       d="m 221.18609,98.70046 c -9.33435,-0.07645 -20.814,-0.188393 -25.51035,-0.248799 l -8.5388,-0.109835 V 84.007119 69.672418 l 23.07069,0.127688 c 12.68887,0.07023 30.4796,0.173995 39.53494,0.230593 l 16.46426,0.102905 -13.23014,14.3347 -13.23015,14.334707 -0.79446,0.01821 c -0.43694,0.01002 -8.43165,-0.04431 -17.76599,-0.120757 z"
       id="path5406-1" />
    <path
       style="fill:#d3d7cf;fill-opacity:1;stroke:#1b1bcb;stroke-width:0.189148;stroke-linecap:round;stroke-miterlimit:4;stroke-dasharray:none;stroke-dashoffset:0"
       d="m 226.17148,129.09578 v -13.87497 l 20.07941,-21.784709 c 11.04369,-11.981586 20.21446,-21.898539 20.37951,-22.03767 0.25876,-0.218128 0.27982,1.674666 0.15289,13.744454 l -0.1472,13.997408 -20.05408,21.755017 c -11.02975,11.96526 -20.13429,21.82712 -20.23231,21.91523 -0.098,0.0881 -0.17822,-6.08352 -0.17822,-13.71476 z"
       id="path5445-0" />
    <g
       id="g7542"
       transform="matrix(0.51873991,0,0,0.48117358,248.47424,75.630341)">
      <ellipse
         style="fill:#d3d7cf;fill-opacity:1;stroke:#1b1bcb;stroke-width:1;stroke-linecap:round;stroke-miterlimit:4;stroke-dasharray:none;stroke-dashoffset:0"
         id="path5672-5"
         cx="-85.280388"
         cy="77.347328"
         rx="8.3544168"
         ry="4.0590816" />
      <path
         style="fill:#3b72c2;fill-opacity:1;stroke:#000000;stroke-width:1px;stroke-linecap:butt;stroke-linejoin:miter;stroke-opacity:1"
         d="m -93.536355,76.648286 -0.0018,-13.121305"
         id="path5834"
         sodipodi:nodetypes="cc" />
      <path
         style="fill:#3b72c2;fill-opacity:1;stroke:#000000;stroke-width:1px;stroke-linecap:butt;stroke-linejoin:miter;stroke-opacity:1"
         d="m -91.446959,80.38271 -0.0018,-13.121305"
         id="path5834-4"
         sodipodi:nodetypes="cc"
         inkscape:transform-center-x="0.39865121"
         inkscape:transform-center-y="-3.6979142" />
      <path
         style="fill:#3b72c2;fill-opacity:1;stroke:#000000;stroke-width:1px;stroke-linecap:butt;stroke-linejoin:miter;stroke-opacity:1"
         d="m -88.106994,81.483528 -0.0018,-13.121305"
         id="path5834-0"
         sodipodi:nodetypes="cc" />
      <path
         style="fill:#3b72c2;fill-opacity:1;stroke:#000000;stroke-width:1px;stroke-linecap:butt;stroke-linejoin:miter;stroke-opacity:1"
         d="m -79.815989,80.482373 -0.0018,-13.121305"
         id="path5834-5"
         sodipodi:nodetypes="cc" />
      <path
         style="fill:#3b72c2;fill-opacity:1;stroke:#000000;stroke-width:1px;stroke-linecap:butt;stroke-linejoin:miter;stroke-opacity:1"
         d="m -83.71012,81.502222 -0.0018,-13.121305"
         id="path5834-9"
         sodipodi:nodetypes="cc" />
      <path
         style="fill:#3b72c2;fill-opacity:1;stroke:#000000;stroke-width:1px;stroke-linecap:butt;stroke-linejoin:miter;stroke-opacity:1"
         d="m -76.850347,77.610097 -0.0018,-13.121305"
         id="path5834-46"
         sodipodi:nodetypes="cc" />
      <path
         style="fill:#3b72c2;fill-opacity:1;stroke:#000000;stroke-width:1px;stroke-linecap:butt;stroke-linejoin:miter;stroke-opacity:1"
         d="m -89.799188,73.769172 -0.0018,-13.121305"
         id="path5834-92"
         sodipodi:nodetypes="cc" />
      <path
         style="fill:#3b72c2;fill-opacity:1;stroke:#000000;stroke-width:1px;stroke-linecap:butt;stroke-linejoin:miter;stroke-opacity:1"
         d="m -86.251381,73.15214 -0.0018,-13.121305"
         id="path5834-2"
         sodipodi:nodetypes="cc" />
      <path
         style="fill:#3b72c2;fill-opacity:1;stroke:#000000;stroke-width:1px;stroke-linecap:butt;stroke-linejoin:miter;stroke-opacity:1"
         d="m -81.950949,73.412786 -0.0018,-13.121305"
         id="path5834-47"
         sodipodi:nodetypes="cc" />
      <path
         style="fill:#3b72c2;fill-opacity:1;stroke:#000000;stroke-width:1px;stroke-linecap:butt;stroke-linejoin:miter;stroke-opacity:1"
         d="m -78.361519,74.837384 -0.0018,-13.121305"
         id="path5834-7"
         sodipodi:nodetypes="cc" />
      <ellipse
         style="fill:#d3d7cf;fill-opacity:1;stroke:#1b1bcb;stroke-width:1;stroke-linecap:round;stroke-miterlimit:4;stroke-dasharray:none;stroke-dashoffset:0"
         id="path5672"
         cx="-84.924667"
         cy="64.37001"
         rx="8.3544168"
         ry="4.0590816" />
    </g>
    <path
       style="fill:#d3d7cf;fill-opacity:1;stroke:#1b1bcb;stroke-width:0.189148;stroke-linecap:round;stroke-miterlimit:4;stroke-dasharray:none;stroke-dashoffset:0"
       d="m 195.41056,143.89237 c -14.29322,-0.0744 -31.45304,-0.18463 -38.13293,-0.24503 l -12.14526,-0.1098 v -14.25748 -14.25748 l 25.08606,0.11188 c 13.79733,0.0615 31.79247,0.16187 39.9892,0.22296 l 14.90313,0.11108 v 14.30766 14.30764 l -1.85626,-0.0281 c -1.02095,-0.0155 -13.55072,-0.089 -27.84394,-0.16334 z"
       id="path5328-5" />
    <path
       style="display:inline;fill:none;fill-rule:evenodd;stroke:#000000;stroke-width:0.858346px;stroke-linecap:butt;stroke-linejoin:miter;stroke-opacity:1"
       d="m 144.62033,114.53628 80.89757,0.43261"
       id="path1267-4-7-9-8-6"
       inkscape:connector-type="polyline"
       inkscape:connector-curvature="0" />
  </g>
  <g
     id="g8163"
     transform="translate(-230.43051,163.98105)">
    <path
       style="display:inline;fill:none;fill-rule:evenodd;stroke:#000000;stroke-width:0.888585px;stroke-linecap:butt;stroke-linejoin:miter;stroke-opacity:1"
       d="m 351.63596,145.53381 41.79547,-45.29995"
       id="path1267-4-85"
       inkscape:connector-type="polyline"
       inkscape:connector-curvature="0" />
    <path
       style="display:inline;fill:none;fill-rule:evenodd;stroke:#000000;stroke-width:0.858346;stroke-linecap:butt;stroke-linejoin:miter;stroke-miterlimit:4;stroke-dasharray:none;stroke-opacity:1"
       d="M 297.44399,115.28154 312.37347,99.800733"
       id="path1267-4-8-0"
       inkscape:connector-type="polyline"
       inkscape:connector-curvature="0" />
    <path
       style="display:inline;fill:none;fill-rule:evenodd;stroke:#000000;stroke-width:0.704254px;stroke-linecap:butt;stroke-linejoin:miter;stroke-opacity:1"
       d="m 312.53885,99.799102 53.92372,0.436908"
       id="path1267-4-7-6"
       inkscape:connector-type="polyline"
       inkscape:connector-curvature="0" />
    <path
       style="display:inline;fill:none;fill-rule:evenodd;stroke:#000000;stroke-width:0.888585px;stroke-linecap:butt;stroke-linejoin:miter;stroke-opacity:1"
       d="M 351.74171,115.93449 393.53717,70.634563"
       id="path1267-4-75-4"
       inkscape:connector-type="polyline"
       inkscape:connector-curvature="0" />
    <path
       style="display:inline;fill:none;fill-rule:evenodd;stroke:#000000;stroke-width:0.889787px;stroke-linecap:butt;stroke-linejoin:miter;stroke-opacity:1"
       d="M 270.69819,115.55112 312.58885,70.231411"
       id="path1267-4-8-3-6"
       inkscape:connector-type="polyline"
       inkscape:connector-curvature="0" />
    <path
       style="display:inline;fill:none;fill-rule:evenodd;stroke:#000000;stroke-width:0.858346px;stroke-linecap:butt;stroke-linejoin:miter;stroke-opacity:1"
       d="m 312.58882,70.231411 80.89758,0.432624"
       id="path1267-4-7-8-2"
       inkscape:connector-type="polyline"
       inkscape:connector-curvature="0" />
    <path
       style="display:inline;fill:none;fill-rule:evenodd;stroke:#000000;stroke-width:0.858346px;stroke-linecap:butt;stroke-linejoin:miter;stroke-opacity:1"
       d="m 270.78916,145.07173 80.89758,0.43261"
       id="path1267-4-7-9-5"
       inkscape:connector-type="polyline"
       inkscape:connector-curvature="0" />
    <path
       style="display:inline;fill:none;fill-rule:evenodd;stroke:#000000;stroke-width:0.858346px;stroke-linecap:butt;stroke-linejoin:miter;stroke-opacity:1"
       d="m 270.69819,115.55112 80.89758,0.43261"
       id="path1267-4-7-9-8-8"
       inkscape:connector-type="polyline"
       inkscape:connector-curvature="0" />
    <path
       style="fill:none;stroke:#000000;stroke-width:0.858346px;stroke-linecap:butt;stroke-linejoin:miter;stroke-opacity:1"
       d="m 270.64319,145.12095 0.055,-29.56983"
       id="path3471-6"
       sodipodi:nodetypes="cc" />
    <path
       style="fill:none;stroke:#000000;stroke-width:0.858346px;stroke-linecap:butt;stroke-linejoin:miter;stroke-opacity:1"
       d="m 351.68674,145.50434 0.055,-29.56983"
       id="path3471-8-28"
       sodipodi:nodetypes="cc" />
    <path
       style="fill:none;stroke:#000000;stroke-width:0.858346px;stroke-linecap:butt;stroke-linejoin:miter;stroke-opacity:1"
       d="m 393.43143,100.23386 0.055,-29.569832"
       id="path3471-5-4"
       sodipodi:nodetypes="cc" />
    <path
       style="fill:none;stroke:#000000;stroke-width:0.858346px;stroke-linecap:butt;stroke-linejoin:miter;stroke-opacity:1"
       d="m 312.53885,99.799102 0.055,-29.569834"
       id="path3471-9-7"
       sodipodi:nodetypes="cc" />
    <path
       style="fill:#d3d7cf;fill-opacity:1;stroke:#1b1bcb;stroke-width:0.189148;stroke-linecap:round;stroke-miterlimit:4;stroke-dasharray:none;stroke-dashoffset:0"
       d="m 321.48842,144.90721 c -14.29322,-0.0744 -31.45303,-0.18462 -38.13292,-0.24502 l -12.14526,-0.1098 v -14.25748 -14.25748 l 25.08606,0.11187 c 13.79733,0.0615 31.79246,0.16187 39.98919,0.22296 l 14.90313,0.11108 v 14.30766 14.30765 l -1.85626,-0.0281 c -1.02094,-0.0155 -13.55072,-0.089 -27.84394,-0.16333 z"
       id="path5328-2" />
    <path
       style="fill:#d3d7cf;fill-opacity:1;stroke:#1b1bcb;stroke-width:0.189148;stroke-linecap:round;stroke-miterlimit:4;stroke-dasharray:none;stroke-dashoffset:0"
       d="m 278.47617,115.12235 c -3.52954,-0.0259 -6.41736,-0.0806 -6.41736,-0.12135 0,-0.076 39.35903,-42.711369 39.69643,-43.000897 0.10762,-0.09235 0.18416,5.693554 0.18072,13.660125 l -0.006,13.820341 -7.49908,7.757611 c -4.12449,4.26667 -7.45744,7.81451 -7.40655,7.88408 0.0867,0.11852 -2.44477,0.11853 -18.54817,1e-4 z"
       id="path5367-4" />
    <path
       style="fill:#d3d7cf;fill-opacity:1;stroke:#1b1bcb;stroke-width:0.189148;stroke-linecap:round;stroke-miterlimit:4;stroke-dasharray:none;stroke-dashoffset:0"
       d="m 347.26395,99.715302 c -9.33434,-0.07645 -20.814,-0.188386 -25.51034,-0.248799 L 313.2148,99.356667 V 85.021969 70.68727 l 23.07069,0.127682 c 12.68887,0.07025 30.47961,0.173999 39.53494,0.230593 l 16.46427,0.10291 -13.23015,14.334698 -13.23014,14.334707 -0.79446,0.01821 c -0.43695,0.01002 -8.43165,-0.04431 -17.766,-0.120764 z"
       id="path5406-0" />
    <path
       style="fill:#d3d7cf;fill-opacity:1;stroke:#1b1bcb;stroke-width:0.189148;stroke-linecap:round;stroke-miterlimit:4;stroke-dasharray:none;stroke-dashoffset:0"
       d="m 352.24934,130.11063 v -13.87497 l 20.07942,-21.784709 c 11.04369,-11.981586 20.21446,-21.898539 20.37951,-22.03767 0.25876,-0.218134 0.27982,1.674667 0.15288,13.744446 l -0.14719,13.997413 -20.05409,21.75501 c -11.02974,11.96527 -20.13428,21.82712 -20.2323,21.91524 -0.098,0.0881 -0.17823,-6.08353 -0.17823,-13.71476 z"
       id="path5445-6" />
    <g
       id="g7542-2"
       transform="matrix(0.51873991,0,0,0.48117358,393.84731,72.063758)">
      <ellipse
         style="fill:#d3d7cf;fill-opacity:1;stroke:#1b1bcb;stroke-width:1;stroke-linecap:round;stroke-miterlimit:4;stroke-dasharray:none;stroke-dashoffset:0"
         id="path5672-5-9"
         cx="-85.280388"
         cy="77.347328"
         rx="8.3544168"
         ry="4.0590816" />
      <path
         style="fill:#3b72c2;fill-opacity:1;stroke:#000000;stroke-width:1px;stroke-linecap:butt;stroke-linejoin:miter;stroke-opacity:1"
         d="m -93.536355,76.648286 -0.0018,-13.121305"
         id="path5834-90"
         sodipodi:nodetypes="cc" />
      <path
         style="fill:#3b72c2;fill-opacity:1;stroke:#000000;stroke-width:1px;stroke-linecap:butt;stroke-linejoin:miter;stroke-opacity:1"
         d="m -91.446959,80.38271 -0.0018,-13.121305"
         id="path5834-4-8"
         sodipodi:nodetypes="cc"
         inkscape:transform-center-x="0.39865121"
         inkscape:transform-center-y="-3.6979142" />
      <path
         style="fill:#3b72c2;fill-opacity:1;stroke:#000000;stroke-width:1px;stroke-linecap:butt;stroke-linejoin:miter;stroke-opacity:1"
         d="m -88.106994,81.483528 -0.0018,-13.121305"
         id="path5834-0-1"
         sodipodi:nodetypes="cc" />
      <path
         style="fill:#3b72c2;fill-opacity:1;stroke:#000000;stroke-width:1px;stroke-linecap:butt;stroke-linejoin:miter;stroke-opacity:1"
         d="m -79.815989,80.482373 -0.0018,-13.121305"
         id="path5834-5-3"
         sodipodi:nodetypes="cc" />
      <path
         style="fill:#3b72c2;fill-opacity:1;stroke:#000000;stroke-width:1px;stroke-linecap:butt;stroke-linejoin:miter;stroke-opacity:1"
         d="m -83.71012,81.502222 -0.0018,-13.121305"
         id="path5834-9-1"
         sodipodi:nodetypes="cc" />
      <path
         style="fill:#3b72c2;fill-opacity:1;stroke:#000000;stroke-width:1px;stroke-linecap:butt;stroke-linejoin:miter;stroke-opacity:1"
         d="m -76.850347,77.610097 -0.0018,-13.121305"
         id="path5834-46-1"
         sodipodi:nodetypes="cc" />
      <path
         style="fill:#3b72c2;fill-opacity:1;stroke:#000000;stroke-width:1px;stroke-linecap:butt;stroke-linejoin:miter;stroke-opacity:1"
         d="m -89.799188,73.769172 -0.0018,-13.121305"
         id="path5834-92-0"
         sodipodi:nodetypes="cc" />
      <path
         style="fill:#3b72c2;fill-opacity:1;stroke:#000000;stroke-width:1px;stroke-linecap:butt;stroke-linejoin:miter;stroke-opacity:1"
         d="m -86.251381,73.15214 -0.0018,-13.121305"
         id="path5834-2-3"
         sodipodi:nodetypes="cc" />
      <path
         style="fill:#3b72c2;fill-opacity:1;stroke:#000000;stroke-width:1px;stroke-linecap:butt;stroke-linejoin:miter;stroke-opacity:1"
         d="m -81.950949,73.412786 -0.0018,-13.121305"
         id="path5834-47-4"
         sodipodi:nodetypes="cc" />
      <path
         style="fill:#3b72c2;fill-opacity:1;stroke:#000000;stroke-width:1px;stroke-linecap:butt;stroke-linejoin:miter;stroke-opacity:1"
         d="m -78.361519,74.837384 -0.0018,-13.121305"
         id="path5834-7-0"
         sodipodi:nodetypes="cc" />
      <ellipse
         style="fill:#d3d7cf;fill-opacity:1;stroke:#1b1bcb;stroke-width:1;stroke-linecap:round;stroke-miterlimit:4;stroke-dasharray:none;stroke-dashoffset:0"
         id="path5672-3"
         cx="-84.924667"
         cy="64.37001"
         rx="8.3544168"
         ry="4.0590816" />
    </g>
    <g
       id="g7542-9"
       transform="matrix(0.51873991,0,0,0.48117358,366.48514,71.445718)">
      <ellipse
         style="fill:#d3d7cf;fill-opacity:1;stroke:#1b1bcb;stroke-width:1;stroke-linecap:round;stroke-miterlimit:4;stroke-dasharray:none;stroke-dashoffset:0"
         id="path5672-5-1"
         cx="-85.280388"
         cy="77.347328"
         rx="8.3544168"
         ry="4.0590816" />
      <path
         style="fill:#3b72c2;fill-opacity:1;stroke:#000000;stroke-width:1px;stroke-linecap:butt;stroke-linejoin:miter;stroke-opacity:1"
         d="m -93.536355,76.648286 -0.0018,-13.121305"
         id="path5834-96"
         sodipodi:nodetypes="cc" />
      <path
         style="fill:#3b72c2;fill-opacity:1;stroke:#000000;stroke-width:1px;stroke-linecap:butt;stroke-linejoin:miter;stroke-opacity:1"
         d="m -91.446959,80.38271 -0.0018,-13.121305"
         id="path5834-4-9"
         sodipodi:nodetypes="cc"
         inkscape:transform-center-x="0.39865121"
         inkscape:transform-center-y="-3.6979142" />
      <path
         style="fill:#3b72c2;fill-opacity:1;stroke:#000000;stroke-width:1px;stroke-linecap:butt;stroke-linejoin:miter;stroke-opacity:1"
         d="m -88.106994,81.483528 -0.0018,-13.121305"
         id="path5834-0-3"
         sodipodi:nodetypes="cc" />
      <path
         style="fill:#3b72c2;fill-opacity:1;stroke:#000000;stroke-width:1px;stroke-linecap:butt;stroke-linejoin:miter;stroke-opacity:1"
         d="m -79.815989,80.482373 -0.0018,-13.121305"
         id="path5834-5-38"
         sodipodi:nodetypes="cc" />
      <path
         style="fill:#3b72c2;fill-opacity:1;stroke:#000000;stroke-width:1px;stroke-linecap:butt;stroke-linejoin:miter;stroke-opacity:1"
         d="m -83.71012,81.502222 -0.0018,-13.121305"
         id="path5834-9-0"
         sodipodi:nodetypes="cc" />
      <path
         style="fill:#3b72c2;fill-opacity:1;stroke:#000000;stroke-width:1px;stroke-linecap:butt;stroke-linejoin:miter;stroke-opacity:1"
         d="m -76.850347,77.610097 -0.0018,-13.121305"
         id="path5834-46-5"
         sodipodi:nodetypes="cc" />
      <path
         style="fill:#3b72c2;fill-opacity:1;stroke:#000000;stroke-width:1px;stroke-linecap:butt;stroke-linejoin:miter;stroke-opacity:1"
         d="m -89.799188,73.769172 -0.0018,-13.121305"
         id="path5834-92-6"
         sodipodi:nodetypes="cc" />
      <path
         style="fill:#3b72c2;fill-opacity:1;stroke:#000000;stroke-width:1px;stroke-linecap:butt;stroke-linejoin:miter;stroke-opacity:1"
         d="m -86.251381,73.15214 -0.0018,-13.121305"
         id="path5834-2-6"
         sodipodi:nodetypes="cc" />
      <path
         style="fill:#3b72c2;fill-opacity:1;stroke:#000000;stroke-width:1px;stroke-linecap:butt;stroke-linejoin:miter;stroke-opacity:1"
         d="m -81.950949,73.412786 -0.0018,-13.121305"
         id="path5834-47-40"
         sodipodi:nodetypes="cc" />
      <path
         style="fill:#3b72c2;fill-opacity:1;stroke:#000000;stroke-width:1px;stroke-linecap:butt;stroke-linejoin:miter;stroke-opacity:1"
         d="m -78.361519,74.837384 -0.0018,-13.121305"
         id="path5834-7-04"
         sodipodi:nodetypes="cc" />
      <ellipse
         style="fill:#d3d7cf;fill-opacity:1;stroke:#1b1bcb;stroke-width:1;stroke-linecap:round;stroke-miterlimit:4;stroke-dasharray:none;stroke-dashoffset:0"
         id="path5672-6"
         cx="-84.924667"
         cy="64.37001"
         rx="8.3544168"
         ry="4.0590816" />
    </g>
  </g>
  <rect
     style="font-variation-settings:'wght' 700;fill:#ffffff;stroke-width:1.37953"
     id="rect545"
     width="0.10224137"
     height="44.017517"
     x="133.6526"
     y="0" />
  <path
     style="font-variation-settings:'wght' 700;fill:#b3b3b3;stroke-width:1.18022"
     d="m 74.51643,62.248282 -4.944511,-0.309445 6.227802,-6.778915 6.227803,-6.778916 25.937106,-0.02186 25.93711,-0.02186 -6.6554,7.271983 -6.65539,7.271982 -20.56501,-0.161767 C 88.715193,62.63052 77.235912,62.418475 74.51643,62.248282 Z"
     id="path851" />
  <path
     style="font-variation-settings:'wght' 700;fill:#b3b3b3;stroke-width:1.18022"
     d="m 75.611069,163.40572 7.234205,-7.27198 14.13509,0.0975 c 7.774296,0.0537 19.099356,0.34239 25.166786,0.64165 l 11.0317,0.54411 -6.19693,6.63034 -6.19692,6.63033 h -7.99829 -7.99829 l -0.25859,-4.42427 c -0.22792,-3.89944 -0.52231,-4.5117 -2.4817,-5.16126 -1.33307,-0.44193 -3.131288,-0.3917 -4.491521,0.12546 -2.038805,0.77515 -2.268412,1.29757 -2.268412,5.16126 v 4.29881 H 81.83253 68.376863 Z"
     id="path853" />
  <path
     style="font-variation-settings:'wght' 700;fill:#b3b3b3;stroke-width:1.18022"
     d="m 73.664878,278.69996 -4.085009,-0.3213 6.223827,-6.77462 c 5.09048,-5.54097 6.691197,-6.7787 8.79041,-6.79701 2.559891,-0.0223 2.565789,-0.0109 2.262856,4.36365 -0.346345,5.00147 0.382522,5.84812 5.051902,5.86826 4.046705,0.0174 5.090388,-1.24281 5.090388,-6.1467 v -4.10653 h 9.515558 c 8.1421,0 9.3694,0.1761 8.50299,1.22006 -0.55691,0.67104 -0.89279,2.87757 -0.7464,4.9034 0.22684,3.1391 0.61379,3.8049 2.61886,4.50602 1.51214,0.52876 3.19327,0.52525 4.7054,-0.01 2.19547,-0.77686 2.3527,-1.15966 2.3527,-5.72764 v -4.89515 l 4.97669,0.002 4.97669,0.002 -6.6554,7.27198 -6.65539,7.27198 -21.420533,-0.1542 c -11.781292,-0.0848 -23.258784,-0.29879 -25.505539,-0.47551 z"
     id="path855" />
  <text
     xml:space="preserve"
     style="font-size:18.6667px;line-height:26.4945px;font-family:Cantarell;-inkscape-font-specification:'Cantarell, @wght=700';font-variation-settings:'wght' 700;fill:#000000;stroke-width:1.37953"
     x="-0.34635478"
     y="88.229851"
     id="text380"><tspan
       sodipodi:role="line"
       id="tspan378"
       x="-0.34635478"
       y="88.229851"
       style="font-style:normal;font-variant:normal;font-weight:bold;font-stretch:normal;font-size:18.6667px;font-family:'Liberation Mono';-inkscape-font-specification:'Liberation Mono, Bold';font-variant-ligatures:normal;font-variant-caps:normal;font-variant-numeric:normal;font-variant-east-asian:normal">OFT</tspan><tspan
       sodipodi:role="line"
       x="-0.34635478"
       y="115.11875"
       id="tspan484"
       style="font-style:normal;font-variant:normal;font-weight:bold;font-stretch:normal;font-size:18.6667px;font-family:'Liberation Mono';-inkscape-font-specification:'Liberation Mono, Bold';font-variant-ligatures:normal;font-variant-caps:normal;font-variant-numeric:normal;font-variant-east-asian:normal" /><tspan
       sodipodi:role="line"
       x="-0.34635478"
       y="142.00764"
       id="tspan486"
       style="font-style:normal;font-variant:normal;font-weight:bold;font-stretch:normal;font-size:18.6667px;font-family:'Liberation Mono';-inkscape-font-specification:'Liberation Mono, Bold';font-variant-ligatures:normal;font-variant-caps:normal;font-variant-numeric:normal;font-variant-east-asian:normal" /><tspan
       sodipodi:role="line"
       x="-0.34635478"
       y="168.89655"
       id="tspan488"
       style="font-style:normal;font-variant:normal;font-weight:bold;font-stretch:normal;font-size:18.6667px;font-family:'Liberation Mono';-inkscape-font-specification:'Liberation Mono, Bold';font-variant-ligatures:normal;font-variant-caps:normal;font-variant-numeric:normal;font-variant-east-asian:normal" /><tspan
       sodipodi:role="line"
       x="-0.34635478"
       y="195.78545"
       id="tspan494"
       style="font-style:normal;font-variant:normal;font-weight:bold;font-stretch:normal;font-size:18.6667px;font-family:'Liberation Mono';-inkscape-font-specification:'Liberation Mono, Bold';font-variant-ligatures:normal;font-variant-caps:normal;font-variant-numeric:normal;font-variant-east-asian:normal">NOI</tspan><tspan
       sodipodi:role="line"
       x="-0.34635478"
       y="222.67435"
       id="tspan500"
       style="font-style:normal;font-variant:normal;font-weight:bold;font-stretch:normal;font-size:18.6667px;font-family:'Liberation Mono';-inkscape-font-specification:'Liberation Mono, Bold';font-variant-ligatures:normal;font-variant-caps:normal;font-variant-numeric:normal;font-variant-east-asian:normal" /><tspan
       sodipodi:role="line"
       x="-0.34635478"
       y="249.56325"
       id="tspan502"
       style="font-style:normal;font-variant:normal;font-weight:bold;font-stretch:normal;font-size:18.6667px;font-family:'Liberation Mono';-inkscape-font-specification:'Liberation Mono, Bold';font-variant-ligatures:normal;font-variant-caps:normal;font-variant-numeric:normal;font-variant-east-asian:normal" /><tspan
       sodipodi:role="line"
       x="-0.34635478"
       y="276.45215"
       id="tspan504"
       style="font-style:normal;font-variant:normal;font-weight:bold;font-stretch:normal;font-size:18.6667px;font-family:'Liberation Mono';-inkscape-font-specification:'Liberation Mono, Bold';font-variant-ligatures:normal;font-variant-caps:normal;font-variant-numeric:normal;font-variant-east-asian:normal" /><tspan
       sodipodi:role="line"
       x="-0.34635478"
       y="303.34103"
       id="tspan508"
       style="font-style:normal;font-variant:normal;font-weight:bold;font-stretch:normal;font-size:18.6667px;font-family:'Liberation Mono';-inkscape-font-specification:'Liberation Mono, Bold';font-variant-ligatures:normal;font-variant-caps:normal;font-variant-numeric:normal;font-variant-east-asian:normal">SIT</tspan></text>
  <text
     xml:space="preserve"
     id="text566"
     style="font-style:normal;font-variant:normal;font-weight:bold;font-stretch:normal;font-size:18.6667px;line-height:26.4945px;font-family:'Liberation Mono';-inkscape-font-specification:'Liberation Mono, Bold';font-variant-ligatures:normal;font-variant-caps:normal;font-variant-numeric:normal;font-variant-east-asian:normal;white-space:pre;shape-inside:url(#rect568);display:inline;fill:#000000;stroke-width:1.37953"
     transform="translate(34.117993)" />
</svg>
