<?xml version="1.0" encoding="UTF-8" standalone="no"?>
<!-- Created with Inkscape (http://www.inkscape.org/) -->

<svg
   xmlns:dc="http://purl.org/dc/elements/1.1/"
   xmlns:cc="http://creativecommons.org/ns#"
   xmlns:rdf="http://www.w3.org/1999/02/22-rdf-syntax-ns#"
   xmlns:svg="http://www.w3.org/2000/svg"
   xmlns="http://www.w3.org/2000/svg"
   xmlns:sodipodi="http://sodipodi.sourceforge.net/DTD/sodipodi-0.dtd"
   xmlns:inkscape="http://www.inkscape.org/namespaces/inkscape"
   width="744.09448819"
   height="1052.3622047"
   id="svg2"
   version="1.1"
   inkscape:version="0.91 r13725"
   sodipodi:docname="single.rat.lick.cs2.svg"
   inkscape:export-filename="/home/hao/Dropbox/grants/2014 menthol R01/fig1.single.rat.licking.png"
   inkscape:export-xdpi="300"
   inkscape:export-ydpi="300">
  <defs
     id="defs4">
    <inkscape:perspective
       sodipodi:type="inkscape:persp3d"
       inkscape:vp_x="1672.9241 : 405.17291 : 1"
       inkscape:vp_y="0 : 542.65383 : 0"
       inkscape:vp_z="2370.6555 : -146.03545 : 1"
       inkscape:persp3d-origin="971.69881 : 233.0722 : 1"
       id="perspective4684" />
  </defs>
  <sodipodi:namedview
     id="base"
     pagecolor="#ffffff"
     bordercolor="#666666"
     borderopacity="1.0"
     inkscape:pageopacity="0.0"
     inkscape:pageshadow="2"
     inkscape:zoom="2.6323079"
     inkscape:cx="550.20395"
     inkscape:cy="320.5498"
     inkscape:document-units="px"
     inkscape:current-layer="layer1"
     showgrid="false"
     inkscape:window-width="1920"
     inkscape:window-height="1116"
     inkscape:window-x="0"
     inkscape:window-y="0"
     inkscape:window-maximized="1"
     showguides="true"
     inkscape:guide-bbox="true" />
  <metadata
     id="metadata7">
    <rdf:RDF>
      <cc:Work
         rdf:about="">
        <dc:format>image/svg+xml</dc:format>
        <dc:type
           rdf:resource="http://purl.org/dc/dcmitype/StillImage" />
        <dc:title></dc:title>
      </cc:Work>
    </rdf:RDF>
  </metadata>
  <g
     inkscape:label="Layer 1"
     inkscape:groupmode="layer"
     id="layer1">
    <path
       inkscape:connector-curvature="0"
       id="path5110"
       d=""
       style="fill:none;stroke:#a3a2a3;stroke-width:1.51522887;stroke-linecap:round;stroke-miterlimit:4;stroke-opacity:1;stroke-dasharray:none;stroke-dashoffset:0"
       inkscape:export-xdpi="300"
       inkscape:export-ydpi="300" />
    <path
       inkscape:connector-curvature="0"
       id="path5122"
       d=""
       style="fill:none;stroke:#a3a2a3;stroke-width:1.51522887;stroke-linecap:round;stroke-miterlimit:4;stroke-opacity:1;stroke-dasharray:none;stroke-dashoffset:0"
       inkscape:export-filename="/home/hao/Dropbox/grants/2014 menthol R01/path5110.png"
       inkscape:export-xdpi="300"
       inkscape:export-ydpi="300" />
    <flowRoot
       xml:space="preserve"
       id="flowRoot6046"
       style="fill:black;stroke:none;stroke-opacity:1;stroke-width:1px;stroke-linejoin:miter;stroke-linecap:butt;fill-opacity:1;font-family:Bitstream Vera Sans;font-style:normal;font-weight:normal;font-size:40px;line-height:125%;letter-spacing:0px;word-spacing:0px"
       inkscape:export-filename="/home/hao/Dropbox/grants/2014 menthol R01/path5110.png"
       inkscape:export-xdpi="300"
       inkscape:export-ydpi="300"><flowRegion
         id="flowRegion6048"><rect
           id="rect6050"
           width="1277.1428"
           height="1185.7142"
           x="914.28571"
           y="129.50504" /></flowRegion><flowPara
         id="flowPara6052" /></flowRoot>    <path
       sodipodi:nodetypes="cc"
       id="path3170-0-7"
       d="M 578.22617,749.79763 434.0632,750.08917"
       style="fill:#666666;fill-opacity:0.38934434;stroke:#a1a1a1;stroke-width:0.75953686;stroke-linecap:square;stroke-linejoin:miter;stroke-miterlimit:4;stroke-opacity:1;stroke-dasharray:none"
       inkscape:connector-curvature="0"
       inkscape:export-filename="/home/hao/Dropbox/grants/2014 menthol R01/path5110.png"
       inkscape:export-xdpi="300"
       inkscape:export-ydpi="300" />
    <path
       sodipodi:nodetypes="cc"
       id="path2160-2"
       d="m 366.45983,686.36072 0,112.57037"
       style="fill:#4d4d4d;stroke:#000000;stroke-width:1.26589477;stroke-linecap:square;stroke-linejoin:miter;stroke-miterlimit:4;stroke-opacity:1;stroke-dasharray:none"
       inkscape:connector-curvature="0"
       inkscape:export-filename="/home/hao/Dropbox/grants/2014 menthol R01/path5110.png"
       inkscape:export-xdpi="300"
       inkscape:export-ydpi="300" />
    <path
       sodipodi:nodetypes="cc"
       id="path3164-1"
       d="m 434.14624,637.78287 -3.8e-4,112.57293"
       style="fill:#666666;fill-opacity:0.38934434;stroke:#a1a1a2;stroke-width:0.75953686;stroke-linecap:square;stroke-linejoin:miter;stroke-miterlimit:4;stroke-opacity:1;stroke-dasharray:none"
       inkscape:connector-curvature="0"
       inkscape:export-filename="/home/hao/Dropbox/grants/2014 menthol R01/path5110.png"
       inkscape:export-xdpi="300"
       inkscape:export-ydpi="300" />
    <path
       inkscape:connector-curvature="0"
       sodipodi:nodetypes="cc"
       id="path3174-2"
       d="M 434.46275,636.43721 367.6095,684.94557"
       style="fill:#4d4d4d;stroke:#000000;stroke-width:1.26589477;stroke-linecap:butt;stroke-linejoin:miter;stroke-miterlimit:4;stroke-opacity:1;stroke-dasharray:none"
       inkscape:export-filename="/home/hao/Dropbox/grants/2014 menthol R01/path5110.png"
       inkscape:export-xdpi="300"
       inkscape:export-ydpi="300" />
    <path
       inkscape:connector-curvature="0"
       sodipodi:nodetypes="cc"
       id="path3176-0"
       d="m 433.51078,749.71497 -69.51223,48.88707"
       style="fill:#4d4d4d;fill-opacity:0.38934434;stroke:#a2a2a3;stroke-width:0.75953686;stroke-linecap:butt;stroke-linejoin:miter;stroke-miterlimit:4;stroke-opacity:1;stroke-dasharray:none"
       inkscape:export-filename="/home/hao/Dropbox/grants/2014 menthol R01/path5110.png"
       inkscape:export-xdpi="300"
       inkscape:export-ydpi="300" />
    <path
       sodipodi:nodetypes="cc"
       id="path3134-4-6"
       d="m 508.62478,685.71908 0,112.57039"
       style="fill:#4d4d4d;stroke:#000000;stroke-width:1.26589477;stroke-linecap:square;stroke-linejoin:miter;stroke-miterlimit:4;stroke-opacity:1;stroke-dasharray:none"
       inkscape:connector-curvature="0"
       inkscape:export-filename="/home/hao/Dropbox/grants/2014 menthol R01/path5110.png"
       inkscape:export-xdpi="300"
       inkscape:export-ydpi="300" />
    <path
       sodipodi:nodetypes="cc"
       id="path3142-1-4"
       d="m 508.62478,798.28947 -142.99825,0"
       style="fill:#666666;stroke:#000000;stroke-width:1.81018233;stroke-linecap:square;stroke-linejoin:miter;stroke-miterlimit:4;stroke-opacity:1;stroke-dasharray:none"
       inkscape:connector-curvature="0"
       inkscape:export-filename="/home/hao/Dropbox/grants/2014 menthol R01/path5110.png"
       inkscape:export-xdpi="300"
       inkscape:export-ydpi="300" />
    <path
       inkscape:connector-curvature="0"
       sodipodi:nodetypes="cc"
       id="path3154-9-4"
       d="m 578.65049,749.81605 -69.51278,48.88809"
       style="fill:#4d4d4d;stroke:#000000;stroke-width:1.26589477;stroke-linecap:butt;stroke-linejoin:miter;stroke-miterlimit:4;stroke-opacity:1;stroke-dasharray:none"
       inkscape:export-filename="/home/hao/Dropbox/grants/2014 menthol R01/path5110.png"
       inkscape:export-xdpi="300"
       inkscape:export-ydpi="300" />
    <path
       sodipodi:nodetypes="cc"
       id="path3166-4-6"
       d="m 578.22663,637.22484 0,112.57279"
       style="fill:none;stroke:#000000;stroke-width:1.26589477;stroke-linecap:square;stroke-linejoin:miter;stroke-miterlimit:4;stroke-opacity:1;stroke-dasharray:none"
       inkscape:connector-curvature="0"
       inkscape:export-filename="/home/hao/Dropbox/grants/2014 menthol R01/path5110.png"
       inkscape:export-xdpi="300"
       inkscape:export-ydpi="300" />
    <path
       sodipodi:nodetypes="cc"
       id="path3168-3-8"
       d="m 577.30904,636.29719 -143.18711,0.76007"
       style="fill:#4d4d4d;stroke:#000000;stroke-width:1.77784336;stroke-linecap:square;stroke-linejoin:miter;stroke-miterlimit:4;stroke-opacity:1;stroke-dasharray:none"
       inkscape:connector-curvature="0"
       inkscape:export-filename="/home/hao/Dropbox/grants/2014 menthol R01/path5110.png"
       inkscape:export-xdpi="300"
       inkscape:export-ydpi="300" />
    <path
       inkscape:connector-curvature="0"
       sodipodi:nodetypes="cc"
       id="path3172-6-8"
       d="m 578.08109,636.63891 -69.5132,48.88793"
       style="fill:#4d4d4d;stroke:#000000;stroke-width:1.26589477;stroke-linecap:butt;stroke-linejoin:miter;stroke-miterlimit:4;stroke-opacity:1;stroke-dasharray:none"
       inkscape:export-filename="/home/hao/Dropbox/grants/2014 menthol R01/path5110.png"
       inkscape:export-xdpi="300"
       inkscape:export-ydpi="300" />
    <path
       sodipodi:nodetypes="cc"
       inkscape:connector-curvature="0"
       id="path4780-4"
       d="M 509.15863,760.07319 C 471.72382,764.63321 475.3668,625.79764 475.3668,625.79764"
       style="fill:none;stroke:#000000;stroke-width:1.26589477;stroke-linecap:butt;stroke-linejoin:miter;stroke-miterlimit:4;stroke-opacity:1;stroke-dasharray:none"
       inkscape:export-filename="/home/hao/Dropbox/grants/2014 menthol R01/path5110.png"
       inkscape:export-xdpi="300"
       inkscape:export-ydpi="300" />
    <path
       sodipodi:nodetypes="cscc"
       inkscape:connector-curvature="0"
       id="path5134-4"
       d="m 532.33754,739.34289 c 0,0 0.83992,0.92856 -0.54488,20.65776 -0.62634,8.92369 -12.16887,4.26273 -12.16887,4.26273 l 0,0"
       style="fill:none;stroke:#000000;stroke-width:2.53178954;stroke-linecap:round;stroke-linejoin:miter;stroke-miterlimit:4;stroke-opacity:1;stroke-dasharray:none"
       inkscape:export-filename="/home/hao/Dropbox/grants/2014 menthol R01/path5110.png"
       inkscape:export-xdpi="300"
       inkscape:export-ydpi="300" />
    <path
       sodipodi:nodetypes="cscc"
       inkscape:connector-curvature="0"
       id="path5134-2-0"
       d="m 562.68837,716.78866 c 0,0 0.83992,0.92855 -0.54487,20.65776 -0.62638,8.92368 -12.16892,4.26272 -12.16892,4.26272 l 0,0"
       style="fill:none;stroke:#000000;stroke-width:2.53192282;stroke-linecap:round;stroke-linejoin:miter;stroke-miterlimit:4;stroke-opacity:1;stroke-dasharray:none"
       inkscape:export-filename="/home/hao/Dropbox/grants/2014 menthol R01/path5110.png"
       inkscape:export-xdpi="300"
       inkscape:export-ydpi="300" />
    <path
       sodipodi:nodetypes="ccsc"
       inkscape:connector-curvature="0"
       id="path5154-9"
       d="m 532.80232,751.31399 c 0,-9.55494 -0.22537,-0.54278 -0.22537,-0.54278 0,0 -3.7049,-32.82974 5.41485,-2.20499 9.11979,30.62475 19.66453,25.96979 19.66453,25.96979"
       style="fill:none;stroke:#000000;stroke-width:0.84397423;stroke-linecap:butt;stroke-linejoin:miter;stroke-miterlimit:4;stroke-opacity:1;stroke-dasharray:none"
       inkscape:export-filename="/home/hao/Dropbox/grants/2014 menthol R01/path5110.png"
       inkscape:export-xdpi="300"
       inkscape:export-ydpi="300" />
    <path
       d="m 461.18691,796.61978 c 0.59678,-0.15361 1.28604,-0.60487 1.72288,-0.93032 5.42233,-4.03976 7.37645,-11.06095 12.45985,-14.26495 1.38203,-0.87107 2.79342,-1.14381 4.58556,-1.14701 1.79214,-0.003 3.87672,0.28534 5.68709,-1.64747 0.52698,-0.56266 0.6746,-0.62613 1.26881,-0.54587 0.76931,0.10393 3.86727,-0.25922 4.4407,-0.52057 0.24925,-0.11359 0.96447,-0.0829 2.04861,0.0877 1.72936,0.27226 1.81007,0.31662 2.88226,1.58456 0.4123,0.48757 0.56407,0.573 0.67057,0.3774 0.13165,-0.24176 0.0906,-0.71669 -0.11844,-1.36957 -0.0749,-0.23398 -0.0303,-0.27248 0.19611,-0.16959 0.16113,0.0732 0.38658,0.24398 0.50099,0.37952 0.11441,0.13553 0.30161,0.24641 0.41602,0.24641 0.11441,-9e-5 0.25055,0.13275 0.3025,0.29501 0.16298,0.50919 0.44958,0.0751 0.34887,-0.5285 -0.0836,-0.50103 -0.0575,-0.55356 0.2299,-0.46347 0.4882,0.15301 0.5613,-0.37886 0.12808,-0.93184 l -0.3741,-0.47747 0.43464,0.13068 c 0.36228,0.10893 0.4181,0.0789 0.3351,-0.18031 -0.0548,-0.17105 -0.30296,-0.43707 -0.55155,-0.59116 -0.2486,-0.15413 -0.4348,-0.38058 -0.4138,-0.50326 0.0211,-0.1227 -0.25405,-0.34807 -0.61129,-0.50089 l -0.64949,-0.27782 -0.76721,0.38773 c -0.82571,0.41728 -1.94778,0.71579 -1.94778,0.51812 0,-0.0667 0.33786,-0.4854 0.75085,-0.93043 0.41295,-0.44508 0.84836,-1.02768 0.96757,-1.2947 l 0.21677,-0.48551 1.84193,-0.001 c 1.01308,-9.3e-4 2.03559,-0.0898 2.27228,-0.19768 0.34899,-0.15904 0.59893,-0.11031 1.32248,0.25778 0.4907,0.24966 1.34141,0.68128 1.8905,0.9592 0.91886,0.46507 2.32572,1.57998 2.56514,2.03277 0.12931,0.24459 0.45047,0.01 0.45047,-0.32933 0,-0.19181 0.14454,-0.2319 0.55089,-0.1531 l 0.55094,0.10722 0,-0.47878 c 0,-0.38583 0.0611,-0.45959 0.31482,-0.38005 0.35901,0.11252 0.38716,0.003 0.14117,-0.54778 -0.12738,-0.2853 -0.12639,-0.42398 0.004,-0.52039 0.36658,-0.27157 -0.4328,-0.78791 -1.50047,-0.96917 -1.01863,-0.17299 -1.7926,-0.56247 -1.7926,-0.90213 0,-0.2283 0.54472,-0.77966 0.77024,-0.77965 0.10704,1.5e-4 0.52644,0.16278 0.93206,0.36177 1.06245,0.52114 2.07552,0.66798 2.07552,0.30086 0,-0.19116 0.15576,-0.28528 0.47223,-0.28525 0.31482,-10e-6 0.47223,-0.0943 0.47223,-0.28303 0,-0.1557 0.0708,-0.28306 0.15741,-0.28302 0.3048,-10e-6 0.14943,-0.28783 -0.39548,-0.73265 -0.33686,-0.27498 -0.89271,-0.49478 -1.43159,-0.56603 l -0.88085,-0.1165 0.6316,-0.85896 c 0.9207,-1.25213 1.7448,-1.86208 3.06244,-2.2667 0.64235,-0.19725 1.55096,-0.5683 2.01916,-0.82455 0.4682,-0.2563 1.24085,-0.54964 1.71704,-0.65192 0.47615,-0.10222 1.14906,-0.2748 1.4954,-0.38322 0.3463,-0.10843 0.82311,-0.24253 1.0596,-0.29752 0.23647,-0.0553 0.66174,-0.33245 0.94501,-0.61633 0.28322,-0.28388 0.6564,-0.61015 0.82928,-0.72509 0.62772,-0.41718 0.47154,-0.83682 -0.88772,-2.38507 -1.84907,-2.10617 -3.33737,-3.24989 -5.03502,-3.8694 -1.08729,-0.39677 -1.39735,-0.58578 -1.39735,-0.85166 0,-0.46123 -0.5241,-1.66381 -0.90515,-2.07685 -0.3693,-0.40037 -0.50456,-0.25976 -0.94439,0.98164 l -0.28944,0.81682 -0.46524,-0.60319 c -1.02486,-1.32861 -2.52921,-1.74166 -3.20465,-0.8798 -0.19496,0.2487 -0.44121,0.85986 -0.54722,1.35809 l -0.1928,0.90591 -0.99733,0.73114 c -0.54852,0.40211 -1.11151,0.73075 -1.25111,0.7303 -0.13956,-2.8e-4 -0.64773,-0.17201 -1.12925,-0.38131 -3.12702,-1.35919 -9.29648,-0.68468 -12.74054,1.39298 -3.01568,1.81923 -4.71368,4.34716 -5.53498,8.24023 -0.27981,1.32633 -0.3157,1.93951 -0.25132,4.29509 0.0479,1.75328 0.17649,3.21337 0.35521,4.034 l 0.28011,1.28618 c 0,0 -0.21557,0.31547 -0.75207,1.10063 -0.53654,0.78521 -1.69712,0.92947 -3.62997,0.89845 -1.93281,-0.0307 -3.54285,0.61188 -5.02857,1.70136 -4.02092,2.94849 -5.98471,8.82601 -9.61698,12.42706 -1.55119,1.53785 -2.12516,2.54241 -5.11923,3.83992 -0.34534,0.14968 -0.65928,0.20043 -0.65928,0.29094 0,0.22963 1.16384,0.17782 2.24157,-0.0997 z"
       id="path2989-0-6"
       style="fill:#030303"
       inkscape:connector-curvature="0"
       inkscape:export-filename="/home/hao/Dropbox/grants/2014 menthol R01/path5110.png"
       inkscape:export-xdpi="300"
       inkscape:export-ydpi="300" />
    <path
       sodipodi:nodetypes="cc"
       id="path3140-1-6"
       d="m 508.62478,685.71908 -141.95276,0.37989"
       style="fill:none;stroke:#000000;stroke-width:1.8124516;stroke-linecap:square;stroke-linejoin:miter;stroke-miterlimit:4;stroke-opacity:1;stroke-dasharray:none"
       inkscape:connector-curvature="0"
       inkscape:export-filename="/home/hao/Dropbox/grants/2014 menthol R01/path5110.png"
       inkscape:export-xdpi="300"
       inkscape:export-ydpi="300" />
    <text
       xml:space="preserve"
       style="font-size:40px;font-style:normal;font-weight:normal;line-height:125%;letter-spacing:0px;word-spacing:0px;fill:#000000;fill-opacity:1;stroke:none;font-family:Bitstream Vera Sans"
       x="473.11606"
       y="619.59131"
       id="text5749-6"
       sodipodi:linespacing="125%"
       inkscape:export-filename="/home/hao/Dropbox/grants/2014 menthol R01/path5110.png"
       inkscape:export-xdpi="300"
       inkscape:export-ydpi="300"><tspan
         sodipodi:role="line"
         id="tspan5751-8"
         x="473.11606"
         y="619.59131"
         style="font-size:11px">Nicotine</tspan></text>
    <text
       xml:space="preserve"
       style="font-style:normal;font-weight:normal;font-size:40px;line-height:99.00000095%;font-family:'Bitstream Vera Sans';letter-spacing:0px;word-spacing:0px;fill:#666666;fill-opacity:1;stroke:none;"
       x="550.93146"
       y="699.44714"
       id="text5763-0"
       sodipodi:linespacing="99.000001%"
       inkscape:export-filename="/home/hao/Dropbox/grants/2014 menthol R01/path5110.png"
       inkscape:export-xdpi="300"
       inkscape:export-ydpi="300"><tspan
         sodipodi:role="line"
         id="tspan5765-0"
         x="550.93146"
         y="699.44714"
         style="font-size:11px;line-height:99.00000095%;fill:#666666;">Inactive</tspan><tspan
         sodipodi:role="line"
         x="550.93146"
         y="710.33716"
         id="tspan5767-3"
         style="font-size:11px;line-height:99.00000095%;fill:#666666;">spout</tspan></text>
    <text
       xml:space="preserve"
       style="font-style:normal;font-weight:normal;font-size:40px;line-height:100%;font-family:'Bitstream Vera Sans';letter-spacing:0px;word-spacing:0px;fill:#666666;fill-opacity:1;stroke:none;"
       x="511.58752"
       y="721.74988"
       id="text5781-3"
       sodipodi:linespacing="100%"
       inkscape:export-filename="/home/hao/Dropbox/grants/2014 menthol R01/path5110.png"
       inkscape:export-xdpi="300"
       inkscape:export-ydpi="300"><tspan
         sodipodi:role="line"
         id="tspan5783-5"
         x="511.58752"
         y="721.74988"
         style="font-size:11px;line-height:100%;fill:#666666;">Active </tspan><tspan
         sodipodi:role="line"
         x="511.58752"
         y="732.74988"
         style="font-size:11px;line-height:100%;fill:#666666;"
         id="tspan5785-0">spout</tspan></text>
    <text
       xml:space="preserve"
       style="font-style:normal;font-weight:normal;font-size:40px;line-height:100%;font-family:'Bitstream Vera Sans';letter-spacing:0px;word-spacing:0px;fill:#d45500;fill-opacity:1;stroke:none"
       x="539.69385"
       y="785.58124"
       id="text5769-1-6"
       sodipodi:linespacing="100%"
       inkscape:export-filename="/home/hao/Dropbox/grants/2014 menthol R01/path5110.png"
       inkscape:export-xdpi="300"
       inkscape:export-ydpi="300"><tspan
         sodipodi:role="line"
         x="539.69385"
         y="785.58124"
         id="tspan5779-8-5"
         style="font-size:11px;line-height:100%;fill:#d45500">Flavor +</tspan><tspan
         sodipodi:role="line"
         x="539.69385"
         y="796.58124"
         style="font-size:11px;line-height:100%;fill:#d45500"
         id="tspan3390">CS<tspan
   style="font-size:7.5px;line-height:100%;fill:#d45500"
   id="tspan3392">2</tspan></tspan></text>
  </g>
</svg>
