<svg width="460" height="230" id="violinplot0Svg" version="1.1" xmlns="http://www.w3.org/2000/svg"><style type="text/css"><![CDATA[
.violin-x-axis line, .violin-y-axis line, .violin-x-axis path, .violin-y-axis path { font-family: "Open Sans", "Helvetica", "Arial", sans-serif; fill: none; stroke: silver; stroke-width: 1px; shape-rendering: crispedges; }
.violin-x-axis text, .violin-y-axis text, .violin-x-axis-hide text { font-family: "Open Sans", "Helvetica", "Arial", sans-serif; fill: rgb(42, 113, 139); }
.violin-size-axis-hide text { font-family: "Open Sans", "Helvetica", "Arial", sans-serif; fill: rgb(35, 157, 184); font-size: 11px; }
.violin-size-axis-hide line, .violin-size-axis-hide path { fill: none; stroke: silver; stroke-width: 0px; shape-rendering: crispedges; }
.violin-sub-axis line, .violin-sub-axis path { stroke-width: 1px; stroke: silver; shape-rendering: crispedges; }
.violin-sub-axis text, .violin-sub-axis-hide text { fill: slategray; font-size: 12px; font-family: "Open Sans", "Helvetica", "Arial", sans-serif; }
.violin-axis-label { fill: slategray; font-size: 12px; font-family: "Open Sans", "Helvetica", "Arial", sans-serif; }
.violin-group-label { font-size: 12px; text-anchor: middle; }
line.violin-median { stroke-width: 2px; stroke: rgb(255, 255, 255); }
rect.violin-ir { fill: rgb(85, 95, 102); stroke-width: 0px; }
.ed-section-title { font-family: "Open Sans", "Helvetica", "Arial", sans-serif; font-size: 15px; }

]]></style><g transform="translate(50, 50)"><text class="ed-section-title" x="0" y="-34">Cyp26b1 (ENSRNOG00000015076) and chr4:118013062</text><g><text x="0" y="0" class="violin-group-label" text-anchor="center" fill="SlateGray" transform="translate(46.5, 130)"></text></g><g id="violin0-AA" class="violin-g"><path d="M13.859178422890105,75L13.699418571593542,74L13.533949656992283,74L13.36258570285974,73L13.184855184895683,72L12.999997754586268,71L12.80698512026201,70L12.604566699854278,70L12.391338464919109,69L12.165831109701418,68L11.926611541713282,67L11.672389960295204,67L11.402123711934482,66L11.115108879186552,65L10.81105127968242,64L10.490110213758951,63L10.152910767663755,63L9.8005234988542,62L9.434413554641537,61L9.056364314470544,60L8.66838312031768,60L8.272598259336444,59L7.8711568963586425,58L7.466133078093076,57L7.059453357675683,56L6.652845265153956,56L6.247811118283467,55L5.845626908319153,54L5.4473635638584055,53L5.053926070971349,52L4.666104871765536,52L4.284633704423047,51L3.9102484874759167,50L3.543742794097109,49L3.1860166597603228,49L2.838116667384815,48L2.5012662510115296,47L2.1768858243188345,46L1.866602641953622,45L1.572250300121657,45L1.295857608840408,44L1.0396263875999117,43L0.8058977095537413,42L0.5971063648323403,42L0.4157238797772939,41L0.2641912837934744,40L0.1448438522978487,39L0.05983111260713016,38L0.011036297476428368,38L0,37L0.027852901094420453,36L0.09526205254408512,35L0.20239432797822565,35L0.3488993971260536,34L0.5339130862418902,33L0.7560804396880257,32L1.0135963741653333,31L1.3042606708591198,31L1.6255432875823763,30L1.9746556408354043,29L2.3486235962795226,28L2.744358355355946,28L3.1587221405953683,27L3.588586450296652,26L4.030881562710499,25L4.482636823283026,24L4.941011972724948,24L5.40332032387189,23L5.867044954309723,22L6.329849255546901,21L6.789583190751626,20L7.244286493999098,20L7.692189830379393,19L8.131714663133662,18L8.561472272958664,17L8.980262073764186,17L9.38706909342276,16L9.781060260261421,15L10.16157897747348,14L10.528137397360313,13L10.880405840323888,13L11.218198947610851,12L11.54145840900479,11L11.850232450206587,10L12.144652667456837,10L12.424909212681602,9L12.69122570450857,8L12.943835509100623,7L13.182961145941492,6L13.408798489111112,6L13.621507139903288,5L17.378492860096713,5L17.591201510888887,6L17.817038854058506,6L18.056164490899377,7L18.308774295491432,8L18.5750907873184,9L18.855347332543165,10L19.149767549793413,10L19.45854159099521,11L19.781801052389152,12L20.11959415967611,13L20.47186260263969,13L20.838421022526518,14L21.218939739738577,15L21.61293090657724,16L22.019737926235816,17L22.438527727041336,17L22.86828533686634,18L23.30781016962061,19L23.755713506000898,20L24.210416809248372,20L24.6701507444531,21L25.132955045690277,22L25.59667967612811,23L26.05898802727505,24L26.517363176716973,24L26.969118437289502,25L27.411413549703344,26L27.84127785940463,27L28.255641644644054,28L28.651376403720473,28L29.025344359164595,29L29.374456712417622,30L29.695739329140885,31L29.986403625834665,31L30.243919560311973,32L30.466086913758108,33L30.65110060287395,34L30.79760567202177,35L30.904737947455917,35L30.972147098905584,36L31,37L30.98896370252357,38L30.94016888739287,38L30.85515614770215,39L30.73580871620653,40L30.58427612022271,41L30.40289363516766,42L30.194102290446256,42L29.96037361240009,43L29.704142391159593,44L29.427749699878344,45L29.13339735804638,45L28.823114175681162,46L28.49873374898847,47L28.161883332615187,48L27.813983340239677,49L27.456257205902894,49L27.08975151252408,50L26.71536629557695,51L26.333895128234463,52L25.94607392902865,52L25.552636436141597,53L25.154373091680846,54L24.75218888171653,55L24.347154734846047,56L23.940546642324314,56L23.533866921906924,57L23.128843103641355,58L22.727401740663552,59L22.331616879682322,60L21.943635685529458,60L21.565586445358463,61L21.199476501145796,62L20.84708923233624,63L20.509889786241047,63L20.188948720317583,64L19.88489112081345,65L19.59787628806552,66L19.327610039704798,67L19.073388458286715,67L18.83416889029858,68L18.60866153508089,69L18.395433300145726,70L18.19301487973799,70L18.000002245413732,71L17.81514481510432,72L17.637414297140257,73L17.46605034300772,74L17.30058142840646,74L17.140821577109893,75Z" class="violin" style="fill: rgb(144, 193, 193);"></path><rect x="10.333333333333334" y="29" width="10.33333333333333" height="20" class="violin-ir"></rect><line x1="10.333333333333334" x2="20.666666666666664" y1="38" y2="38" class="violin-median"></line></g><g id="violin0-AG" class="violin-g"><path d="M37.37645416493059,63L36.91212770177935,63L36.48778941867021,62L36.09617571864112,61L35.72788097796584,60L35.3725796579528,60L35.02033564003089,59L34.66284251959964,58L34.294452486148465,57L33.91288525183153,56L33.51955618191826,56L33.11951611435348,55L32.721045540521786,54L32.33498508183139,53L31.973907116534846,52L31.65123775802184,52L31.38042533077304,51L31.174225186424046,50L31.044137344480756,49L31,49L31.049714812157724,48L31.199063721105453,47L31.451573936468286,46L31.808396975484953,45L32.268185938142516,45L32.826977565013095,44L33.47810635244533,43L34.212191977311875,42L35.01724500280936,42L57.98275499719064,42L58.787808022688125,42L59.52189364755467,43L60.1730224349869,44L60.731814061857484,45L61.19160302451505,45L61.54842606353172,46L61.80093627889455,47L61.950285187842276,48L62,49L61.95586265551925,49L61.82577481357596,50L61.61957466922696,51L61.34876224197816,52L61.026092883465154,52L60.66501491816861,53L60.278954459478214,54L59.88048388564653,55L59.480443818081746,56L59.087114748168474,56L58.70554751385153,57L58.337157480400364,58L57.97966435996911,59L57.627420342047216,60L57.27211902203416,60L56.90382428135888,61L56.51221058132979,62L56.08787229822065,63L55.62354583506941,63Z" class="violin" style="fill: rgb(144, 193, 193);"></path><rect x="41.33333333333333" y="46" width="10.333333333333336" height="11" class="violin-ir"></rect><line x1="41.33333333333333" x2="51.666666666666664" y1="51" y2="51" class="violin-median"></line></g><g class="violin-size-axis-hide" transform="translate(0, 98)" fill="none" font-size="10" font-family="sans-serif" text-anchor="middle"><path class="domain" stroke="currentColor" d="M0.5,6V0.5H93.5V6"></path><g class="tick" opacity="1" transform="translate(15.5,0)"><line stroke="currentColor" y2="6"></line><text fill="currentColor" y="9" dy="0.71em">(73)</text></g><g class="tick" opacity="1" transform="translate(46.5,0)"><line stroke="currentColor" y2="6"></line><text fill="currentColor" y="9" dy="0.71em"> (8) </text></g><g class="tick" opacity="1" transform="translate(77.5,0)"><line stroke="currentColor" y2="6"></line><text fill="currentColor" y="9" dy="0.71em">  (0)  </text></g></g><g class="violin-sub-axis" transform="translate(0, 85)" fill="none" font-size="10" font-family="sans-serif" text-anchor="middle"><path class="domain" stroke="currentColor" d="M0.5,6V0.5H93.5V6"></path><g class="tick" opacity="1" transform="translate(15.5,0)"><line stroke="currentColor" y2="6"></line><text fill="currentColor" y="9" dy="0.71em">AA</text></g><g class="tick" opacity="1" transform="translate(46.5,0)"><line stroke="currentColor" y2="6"></line><text fill="currentColor" y="9" dy="0.71em">AG</text></g><g class="tick" opacity="1" transform="translate(77.5,0)"><line stroke="currentColor" y2="6"></line><text fill="currentColor" y="9" dy="0.71em">GG</text></g></g><g><text x="0" y="0" class="violin-group-label" text-anchor="center" fill="SlateGray" transform="translate(179.5, 130)"></text></g><g id="violin1-AA" class="violin-g"><path d="M146.40894225185787,74L146.19072098227514,74L145.96259489199826,73L145.72526139892966,72L145.47951396259515,71L145.22624397774663,70L144.96643602395568,70L144.701153319789,69L144.43151092242363,68L144.15863539480057,67L143.88361123872906,67L143.60741620760174,66L143.33084946280655,65L143.05445819416673,64L142.77846955921075,63L142.50273541244633,63L142.22669715698106,62L141.94937710114067,61L141.66940098082247,60L141.38505394785219,60L141.09436954188098,59L140.79524823285232,58L140.48559934211775,57L140.16349780982188,56L139.82734561325626,56L139.47602681862807,55L139.1090453378511,54L138.72663543810506,53L138.32983680565349,52L137.92052832276713,52L137.50141746481202,51L137.0759851383526,50L136.6483886450087,49L136.22332807970352,49L135.80588369938317,48L135.40133350859122,47L135.01496141513036,46L134.6518667584823,45L134.31678578356892,45L134.01393473451787,44L133.74688272652708,43L133.5184605088692,42L133.33070879045067,42L133.18486713061588,41L133.08140169881077,40L133.02006768524774,39L133,38L133.01982429940801,38L133.0777794473049,37L133.17184231373668,36L133.29984632734732,35L133.45958635574854,35L133.6489041613459,34L133.86575069780366,33L134.10822368195744,32L134.3745810022911,31L134.66323242873418,31L134.97271362168988,30L135.30164749627974,29L135.64869852641735,28L136.01252557038694,28L136.39173831232412,27L136.78486153142046,26L137.19031025229,25L137.60637753158585,24L138.03123533450298,24L138.4629477733663,23L138.89949501598392,22L139.33880548598117,21L139.77879359462173,20L140.21740015055013,20L140.65263274688573,19L141.08260376013973,18L141.50556403990907,17L141.91993085286322,17L142.32430911298243,16L142.71750534585388,15L143.09853418363286,14L143.46661747461667,13L143.82117633709717,13L144.16181671712425,12L144.488309246859,11L144.8005644560389,10L145.09860465892024,10L145.38253410001522,9L145.65250915584036,8L145.90871051008287,7L146.15131920059417,6L146.38049824475644,6L150.61950175524356,6L150.84868079940583,6L151.09128948991713,7L151.34749084415964,8L151.61746589998478,9L151.90139534107976,10L152.1994355439611,10L152.511690753141,11L152.83818328287572,12L153.17882366290283,13L153.53338252538333,13L153.90146581636716,14L154.28249465414612,15L154.67569088701757,16L155.08006914713678,17L155.4944359600909,17L155.9173962398603,18L156.34736725311427,19L156.78259984944987,20L157.2212064053783,20L157.66119451401883,21L158.10050498401608,22L158.53705222663373,23L158.96876466549702,24L159.39362246841415,24L159.80968974770997,25L160.21513846857954,26L160.60826168767588,27L160.98747442961306,28L161.35130147358268,28L161.69835250372026,29L162.02728637831012,30L162.33676757126582,31L162.6254189977089,31L162.89177631804256,32L163.13424930219634,33L163.35109583865412,34L163.54041364425146,35L163.70015367265268,35L163.82815768626332,36L163.92222055269508,37L163.98017570059199,38L164,38L163.97993231475226,39L163.91859830118923,40L163.81513286938414,41L163.6692912095493,42L163.4815394911308,42L163.25311727347292,43L162.98606526548213,44L162.68321421643108,45L162.3481332415177,45L161.98503858486964,46L161.5986664914088,47L161.19411630061683,48L160.7766719202965,49L160.3516113549913,49L159.92401486164744,50L159.49858253518798,51L159.07947167723285,52L158.67016319434651,52L158.27336456189497,53L157.8909546621489,54L157.52397318137196,55L157.17265438674377,56L156.83650219017812,56L156.51440065788225,57L156.20475176714768,58L155.90563045811902,59L155.61494605214781,60L155.33059901917753,60L155.05062289885933,61L154.77330284301894,62L154.49726458755367,63L154.22153044078925,63L153.94554180583327,64L153.66915053719345,65L153.39258379239826,66L153.11638876127094,67L152.84136460519943,67L152.56848907757637,68L152.298846680211,69L152.03356397604432,70L151.77375602225337,70L151.52048603740485,71L151.27473860107034,72L151.03740510800176,73L150.80927901772486,74L150.59105774814213,74Z" class="violin" style="fill: rgb(148, 168, 184);"></path><rect x="143.33333333333334" y="29" width="10.333333333333314" height="19" class="violin-ir"></rect><line x1="143.33333333333334" x2="153.66666666666666" y1="39" y2="39" class="violin-median"></line></g><g id="violin1-AG" class="violin-g"><path d="M166.24147898301666,56L165.4195053508359,55L164.7695258273786,54L164.31072727330982,53L164.05366661384159,52L164,52L164.14274477745136,51L164.46697385163344,50L164.9508437573121,49L165.56687986670767,49L166.2834692188637,48L167.066528299118,47L167.88131014131014,46L168.69429138594958,45L169.47504313128294,45L170.19795316851315,44L170.84364628945374,43L171.39995480909528,42L171.86232688146129,42L172.2336206800632,41L172.523306143274,40L172.7461674709396,39L172.92065472092656,38L173.06706242473552,38L173.20571477229143,37L173.35531489568282,36L173.5315787711116,35L173.74623201674405,35L174.0064081925225,34L174.31445414671305,33L184.68554585328695,33L184.99359180747751,34L185.25376798325595,35L185.46842122888836,35L185.64468510431718,36L185.79428522770857,37L185.93293757526448,38L186.07934527907344,38L186.2538325290604,39L186.476693856726,40L186.7663793199368,41L187.13767311853871,42L187.60004519090472,42L188.15635371054626,43L188.80204683148685,44L189.52495686871703,45L190.3057086140504,45L191.11868985868986,46L191.933471700882,47L192.71653078113627,48L193.43312013329233,49L194.04915624268787,49L194.5330261483666,50L194.85725522254864,51L195,52L194.9463333861584,52L194.68927272669018,53L194.2304741726214,54L193.58049464916408,55L192.75852101698334,56Z" class="violin" style="fill: rgb(148, 168, 184);"></path><rect x="174.33333333333334" y="44" width="10.333333333333343" height="10" class="violin-ir"></rect><line x1="174.33333333333334" x2="184.66666666666669" y1="50" y2="50" class="violin-median"></line></g><g class="violin-size-axis-hide" transform="translate(0, 98)" fill="none" font-size="10" font-family="sans-serif" text-anchor="middle"><path class="domain" stroke="currentColor" d="M133.5,6V0.5H226.5V6"></path><g class="tick" opacity="1" transform="translate(148.5,0)"><line stroke="currentColor" y2="6"></line><text fill="currentColor" y="9" dy="0.71em">(72)</text></g><g class="tick" opacity="1" transform="translate(179.5,0)"><line stroke="currentColor" y2="6"></line><text fill="currentColor" y="9" dy="0.71em"> (8) </text></g><g class="tick" opacity="1" transform="translate(210.5,0)"><line stroke="currentColor" y2="6"></line><text fill="currentColor" y="9" dy="0.71em">  (0)  </text></g></g><g class="violin-sub-axis" transform="translate(0, 85)" fill="none" font-size="10" font-family="sans-serif" text-anchor="middle"><path class="domain" stroke="currentColor" d="M133.5,6V0.5H226.5V6"></path><g class="tick" opacity="1" transform="translate(148.5,0)"><line stroke="currentColor" y2="6"></line><text fill="currentColor" y="9" dy="0.71em">AA</text></g><g class="tick" opacity="1" transform="translate(179.5,0)"><line stroke="currentColor" y2="6"></line><text fill="currentColor" y="9" dy="0.71em">AG</text></g><g class="tick" opacity="1" transform="translate(210.5,0)"><line stroke="currentColor" y2="6"></line><text fill="currentColor" y="9" dy="0.71em">GG</text></g></g><g><text x="0" y="0" class="violin-group-label" text-anchor="center" fill="SlateGray" transform="translate(312.5, 130)"></text></g><g id="violin2-AA" class="violin-g"><path d="M280.63939112403216,80L280.54048203681356,79L280.4356316170382,78L280.32446625195905,77L280.20652476410095,77L280.08128344361626,76L279.9481827828108,75L279.80665153843574,74L279.65612504435654,74L279.4960566742234,73L279.3259235325456,72L279.14522927887646,71L278.9535079646443,70L278.7503325687681,70L278.5353305135733,69L278.30820608883084,68L278.068766936692,67L277.8169492417083,67L277.5528347256448,66L277.2766525105829,65L276.98876063632565,64L276.6896053711559,63L276.3796609239206,63L276.0593569250285,62L275.729005107735,61L275.3887390376183,60L275.0384807969946,60L274.6779459356002,59L274.30669296653554,58L273.9242169481407,57L273.53007938273265,56L273.1240601151189,56L272.70631239580166,55L272.27750072125684,54L271.83890286624563,53L271.3924624184287,52L270.9407852306825,52L270.48708118758265,51L270.03506003033175,50L269.58879533745653,49L269.1525732002903,49L268.7307413927579,48L268.3275713475854,47L267.94714004613473,46L267.5932333865125,45L267.2692681103658,45L266.978227013396,44L266.72260241647433,43L266.50434549503626,42L266.3248231523993,42L266.18478833614716,41L266.0843725983491,40L266.0231101385306,39L266,38L266.0136077593341,38L266.062200968195,37L266.1439053395855,36L266.2568629628825,35L266.3993711829487,35L266.56998206143373,34L266.76754756661506,33L266.99120394043337,32L267.24029850090574,31L267.5142715478965,31L267.8125132336316,30L268.1342189076021,29L268.47826597740334,28L268.84313101254986,28L269.2268586582901,27L269.627085389738,26L270.0411128191807,25L270.46601856212726,24L270.89878850736767,24L271.3364530848199,23L271.7762115843167,22L272.21553211729184,21L272.65221955711183,20L273.0844488266804,20L273.510765434652,19L273.9300586386222,18L274.341514752572,17L274.74455888873723,17L275.1387930013572,16L275.5239367783612,15L275.89977606097426,14L276.2661214149997,13L276.6227775455487,13L276.9695226867072,12L277.3060960728578,11L277.63219117993236,10L277.9474525881367,10L278.25147494891326,9L278.54380345244834,8L278.8239361592812,7L279.091329347557,6L279.3454074413383,6L279.58557900695484,5L279.8112597178648,4L283.1887402821352,4L283.41442099304516,5L283.6545925586617,6L283.90867065244294,6L284.1760638407188,7L284.4561965475517,8L284.74852505108674,9L285.0525474118633,10L285.36780882006764,10L285.6939039271422,11L286.03047731329275,12L286.3772224544513,13L286.73387858500035,13L287.1002239390257,14L287.4760632216388,15L287.86120699864273,16L288.2554411112627,17L288.658485247428,17L289.0699413613778,18L289.489234565348,19L289.91555117331967,20L290.34778044288817,20L290.7844678827081,21L291.22378841568326,22L291.6635469151801,23L292.10121149263233,24L292.53398143787274,24L292.9588871808193,25L293.372914610262,26L293.7731413417099,27L294.1568689874501,28L294.5217340225966,28L294.8657810923979,29L295.18748676636847,30L295.48572845210344,31L295.75970149909426,31L296.00879605956663,32L296.232452433385,33L296.43001793856627,34L296.60062881705136,35L296.7431370371175,35L296.8560946604145,36L296.93779903180507,37L296.9863922406659,38L297,38L296.9768898614694,39L296.9156274016509,40L296.81521166385284,41L296.6751768476007,42L296.49565450496374,42L296.27739758352567,43L296.02177298660393,44L295.7307318896342,45L295.4067666134875,45L295.0528599538653,46L294.67242865241457,47L294.2692586072421,48L293.84742679970975,49L293.41120466254347,49L292.96493996966825,50L292.51291881241735,51L292.0592147693175,52L291.60753758157136,52L291.1610971337543,53L290.72249927874316,54L290.29368760419834,55L289.8759398848811,56L289.46992061726735,56L289.0757830518593,57L288.69330703346446,58L288.3220540643998,59L287.9615192030054,60L287.6112609623817,60L287.270994892265,61L286.94064307497155,62L286.6203390760794,63L286.3103946288441,63L286.01123936367435,64L285.7233474894171,65L285.44716527435526,66L285.1830507582917,67L284.931233063308,67L284.69179391116916,68L284.4646694864267,69L284.24966743123196,70L284.0464920353557,70L283.85477072112354,71L283.6740764674544,72L283.50394332577656,73L283.34387495564346,74L283.19334846156426,74L283.0518172171892,75L282.9187165563837,76L282.79347523589905,77L282.67553374804095,77L282.5643683829618,78L282.45951796318644,79L282.36060887596784,80Z" class="violin" style="fill: rgb(144, 193, 193);"></path><rect x="276.33333333333337" y="28" width="10.333333333333314" height="20" class="violin-ir"></rect><line x1="276.33333333333337" x2="286.6666666666667" y1="38" y2="38" class="violin-median"></line></g><g id="violin2-AG" class="violin-g"><path d="M309.3553847695592,74L309.027293930375,73L308.6811568057451,72L308.31740659647886,71L307.93656620446893,70L307.5392503882315,70L307.12617326563475,69L306.6981620898101,68L306.2561776576173,67L305.8013409138932,67L305.33496434093024,66L304.8585856677921,65L304.37400043278194,64L303.8832891419073,63L303.3888343442598,63L302.8933230237957,62L302.3997303664964,61L301.911282210597,60L301.4313952505876,60L300.9635961863164,59L300.51142326318643,58L300.0783157746989,57L299.6674988264564,56L299.28187175691727,56L298.92390890904153,55L298.59558087707865,54L298.29830294900125,53L298.03291536463036,52L297.79969743273153,52L297.59841476982234,51L297.42839622624274,50L297.28863471505946,49L297.17790436541924,49L297.09488531677124,48L297.03828710293624,47L297.0069619161575,46L297,45L297.0168008659032,45L297.0571158152057,44L297.1210592344943,43L297.2090881917754,42L297.32195188962237,42L297.4606144418087,41L297.6261561538735,40L297.8196599277771,39L298.0420904932543,38L298.29417480624954,38L298.5762920643979,37L298.88838130621696,36L299.2298734568819,35L299.59965298610774,35L299.9960521458564,34L300.4168782185958,33L300.8594715501871,32L301.3207896212551,31L301.7975102890788,31L302.28614584139984,30L302.7831588141539,29L303.28507071823475,28L303.7885558744589,28L304.2905143474092,27L304.7881202879994,26L305.27884457342816,25L305.7604531813567,24L306.2309849780178,24L306.6887143128807,23L307.1321048462404,22L307.55976133055293,21L307.97038565084216,20L308.36274241123994,20L308.73563789769906,19L309.08791454567233,18L309.41846129385556,17L309.7262385877997,17L310.01031544820313,16L310.26991502684007,15L310.5044644763001,14L310.7136447503534,13L310.8974360871655,13L311.05615534338773,12L311.190481970621,11L311.3014701870791,10L311.3905457372075,10L311.4594865051251,9L311.51038712165337,8L311.54560855611,7L311.5677144931569,6L311.5793970399153,6L311.58339496127206,5L311.5824081663451,4L311.57901252542024,3L311.57557924262073,3L311.5742029097511,2L311.5766419999502,1L311.58427492586577,0L313.41572507413423,0L313.4233580000498,1L313.425797090249,2L313.4244207573793,3L313.42098747457976,3L313.4175918336549,4L313.416605038728,5L313.4206029600847,6L313.4322855068431,6L313.45439144389,7L313.48961287834663,8L313.5405134948749,9L313.6094542627925,10L313.6985298129209,10L313.809518029379,11L313.94384465661227,12L314.1025639128345,13L314.2863552496466,13L314.4955355236999,14L314.73008497315993,15L314.98968455179687,16L315.2737614122003,17L315.58153870614444,17L315.91208545432767,18L316.26436210230094,19L316.63725758876,20L317.0296143491578,20L317.44023866944707,21L317.8678951537596,22L318.3112856871193,23L318.7690150219822,24L319.23954681864336,24L319.72115542657184,25L320.2118797120006,26L320.7094856525908,27L321.2114441255411,28L321.7149292817653,28L322.216841185846,29L322.71385415860016,30L323.2024897109212,31L323.6792103787449,31L324.1405284498129,32L324.5831217814042,33L325.0039478541436,34L325.40034701389226,35L325.7701265431181,35L326.111618693783,36L326.42370793560207,37L326.70582519375046,38L326.9579095067457,38L327.1803400722229,39L327.3738438461265,40L327.5393855581913,41L327.67804811037763,42L327.7909118082246,42L327.8789407655057,43L327.9428841847943,44L327.9831991340968,45L328,45L327.9930380838425,46L327.96171289706376,47L327.90511468322876,48L327.82209563458076,49L327.7113652849405,49L327.57160377375726,50L327.40158523017766,51L327.2003025672684,52L326.96708463536964,52L326.7016970509988,53L326.40441912292135,54L326.07609109095847,55L325.7181282430828,56L325.3325011735436,56L324.921684225301,57L324.4885767368136,58L324.0364038136836,59L323.5686047494123,60L323.088717789403,60L322.6002696335036,61L322.10667697620437,62L321.6111656557402,63L321.1167108580927,63L320.62599956721806,64L320.1414143322079,65L319.66503565906976,66L319.1986590861068,67L318.7438223423827,67L318.3018379101899,68L317.87382673436525,69L317.4607496117685,70L317.06343379553107,70L316.6825934035211,71L316.3188431942549,72L315.972706069625,73L315.6446152304408,74Z" class="violin" style="fill: rgb(144, 193, 193);"></path><rect x="307.33333333333337" y="35" width="10.333333333333314" height="20" class="violin-ir"></rect><line x1="307.33333333333337" x2="317.6666666666667" y1="45" y2="45" class="violin-median"></line></g><g id="violin2-GG" class="violin-g"><path d="M328,52L332.2674718751568,52L330.5113875406408,51L356.4886124593592,51L354.7325281248432,52L359,52Z" class="violin" style="fill: rgb(144, 193, 193);"></path><rect x="338.33333333333337" y="51" width="10.333333333333314" height="1" class="violin-ir"></rect><line x1="338.33333333333337" x2="348.6666666666667" y1="51" y2="51" class="violin-median"></line></g><g class="violin-size-axis-hide" transform="translate(0, 98)" fill="none" font-size="10" font-family="sans-serif" text-anchor="middle"><path class="domain" stroke="currentColor" d="M266.5,6V0.5H359.5V6"></path><g class="tick" opacity="1" transform="translate(281.5,0)"><line stroke="currentColor" y2="6"></line><text fill="currentColor" y="9" dy="0.71em">(148)</text></g><g class="tick" opacity="1" transform="translate(312.5,0)"><line stroke="currentColor" y2="6"></line><text fill="currentColor" y="9" dy="0.71em"> (39) </text></g><g class="tick" opacity="1" transform="translate(343.5,0)"><line stroke="currentColor" y2="6"></line><text fill="currentColor" y="9" dy="0.71em">  (2)  </text></g></g><g class="violin-sub-axis" transform="translate(0, 85)" fill="none" font-size="10" font-family="sans-serif" text-anchor="middle"><path class="domain" stroke="currentColor" d="M266.5,6V0.5H359.5V6"></path><g class="tick" opacity="1" transform="translate(281.5,0)"><line stroke="currentColor" y2="6"></line><text fill="currentColor" y="9" dy="0.71em">AA</text></g><g class="tick" opacity="1" transform="translate(312.5,0)"><line stroke="currentColor" y2="6"></line><text fill="currentColor" y="9" dy="0.71em">AG</text></g><g class="tick" opacity="1" transform="translate(343.5,0)"><line stroke="currentColor" y2="6"></line><text fill="currentColor" y="9" dy="0.71em">GG</text></g></g><g class="violin-x-axis axis--x" transform="translate(0, 135)" fill="none" font-size="10" font-family="sans-serif" text-anchor="middle"><path class="domain" stroke="currentColor" d="M0.5,6V0.5H360.5V6"></path><g class="tick" opacity="1" transform="translate(46.5,0)"><line stroke="currentColor" y2="6"></line><text fill="currentColor" y="9" dy="0.71em" text-anchor="start" transform="rotate(0, -10, 10)"></text></g><g class="tick" opacity="1" transform="translate(179.5,0)"><line stroke="currentColor" y2="6"></line><text fill="currentColor" y="9" dy="0.71em" text-anchor="start" transform="rotate(0, -10, 10)"></text></g><g class="tick" opacity="1" transform="translate(312.5,0)"><line stroke="currentColor" y2="6"></line><text fill="currentColor" y="9" dy="0.71em" text-anchor="start" transform="rotate(0, -10, 10)"></text></g></g><g class="violin-y-axis axis--y" transform="translate(-5, 0)" fill="none" font-size="10" font-family="sans-serif" text-anchor="end"><path class="domain" stroke="currentColor" d="M-6,80.5H0.5V0.5H-6"></path><g class="tick" opacity="1" transform="translate(0,71.5)"><line stroke="currentColor" x2="-6"></line><text fill="currentColor" x="-9" dy="0.32em">-2.0</text></g><g class="tick" opacity="1" transform="translate(0,56.5)"><line stroke="currentColor" x2="-6"></line><text fill="currentColor" x="-9" dy="0.32em">-1.0</text></g><g class="tick" opacity="1" transform="translate(0,40.5)"><line stroke="currentColor" x2="-6"></line><text fill="currentColor" x="-9" dy="0.32em">0.0</text></g><g class="tick" opacity="1" transform="translate(0,24.5)"><line stroke="currentColor" x2="-6"></line><text fill="currentColor" x="-9" dy="0.32em">1.0</text></g><g class="tick" opacity="1" transform="translate(0,9.5)"><line stroke="currentColor" x2="-6"></line><text fill="currentColor" x="-9" dy="0.32em">2.0</text></g></g><text class="violin-axis-label" text-anchor="middle" transform="translate(-36.75, 40) rotate(-90)">Norm. Expression</text><line class="vline" x1="113" x2="113" y1="80" y2="0" style="stroke-width: 1px; stroke: rgb(86, 98, 107); opacity: 0.5;"></line><line class="vline" x1="246" x2="246" y1="80" y2="0" style="stroke-width: 1px; stroke: rgb(86, 98, 107); opacity: 0.5;"></line><line class="vline" x1="0" x2="0" y1="80" y2="0" style="stroke-width: 0px; stroke: rgb(86, 98, 107); opacity: 0.5;"></line><g><text x="0" y="0" class="violin-group-label" transform="translate(46.5, 155)">Infralimbic cortex</text></g><g><text x="0" y="0" class="violin-group-label" transform="translate(179.5, 155)">Prelimbic cortex</text></g><g><text x="0" y="0" class="violin-group-label" transform="translate(312.5, 155)">Prelimbic cortex 2</text></g></g></svg>