<?xml version="1.0" encoding="UTF-8" standalone="no"?>
<!-- Created with Inkscape (http://www.inkscape.org/) -->

<svg
   xmlns:dc="http://purl.org/dc/elements/1.1/"
   xmlns:cc="http://creativecommons.org/ns#"
   xmlns:rdf="http://www.w3.org/1999/02/22-rdf-syntax-ns#"
   xmlns:svg="http://www.w3.org/2000/svg"
   xmlns="http://www.w3.org/2000/svg"
   xmlns:sodipodi="http://sodipodi.sourceforge.net/DTD/sodipodi-0.dtd"
   xmlns:inkscape="http://www.inkscape.org/namespaces/inkscape"
   width="301.18109"
   height="230.31496"
   id="svg2"
   version="1.1"
   inkscape:version="0.48.4 r9939"
   sodipodi:docname="Fig1.social.rats.withdemo.svg"
   inkscape:export-filename="/home/hao/Dropbox/manuscripts/G2B_outbred/figure1.png"
   inkscape:export-xdpi="300.15765"
   inkscape:export-ydpi="300.15765">
  <defs
     id="defs4">
    <inkscape:perspective
       sodipodi:type="inkscape:persp3d"
       inkscape:vp_x="1672.9241 : 405.17291 : 1"
       inkscape:vp_y="0 : 542.65383 : 0"
       inkscape:vp_z="2370.6555 : -146.03545 : 1"
       inkscape:persp3d-origin="971.69881 : 233.0722 : 1"
       id="perspective4684" />
  </defs>
  <sodipodi:namedview
     id="base"
     pagecolor="#ffffff"
     bordercolor="#666666"
     borderopacity="1.0"
     inkscape:pageopacity="0.0"
     inkscape:pageshadow="2"
     inkscape:zoom="2.6323079"
     inkscape:cx="100.37546"
     inkscape:cy="125.95397"
     inkscape:document-units="px"
     inkscape:current-layer="layer1"
     showgrid="false"
     inkscape:window-width="1200"
     inkscape:window-height="1541"
     inkscape:window-x="2110"
     inkscape:window-y="-1"
     inkscape:window-maximized="1"
     showguides="true"
     inkscape:guide-bbox="true"
     borderlayer="true"
     units="cm"
     width="8.1cm" />
  <metadata
     id="metadata7">
    <rdf:RDF>
      <cc:Work
         rdf:about="">
        <dc:format>image/svg+xml</dc:format>
        <dc:type
           rdf:resource="http://purl.org/dc/dcmitype/StillImage" />
        <dc:title />
      </cc:Work>
    </rdf:RDF>
  </metadata>
  <g
     inkscape:label="Layer 1"
     inkscape:groupmode="layer"
     id="layer1"
     transform="translate(0,-822.04616)">
    <path
       style="fill:none;stroke:#8d5fd3;stroke-width:2.53192282000000013;stroke-linecap:round;stroke-linejoin:miter;stroke-miterlimit:4;stroke-opacity:1;stroke-dasharray:none"
       d="m 33.452069,973.48651 c -1.226762,12.98469 -0.173467,11.5771 7.106949,11.99533"
       id="path4304"
       inkscape:connector-curvature="0"
       sodipodi:nodetypes="cc" />
    <path
       sodipodi:nodetypes="cc"
       id="path3170-0"
       d="M 274.21399,972.02718 84.843516,971.55893"
       style="fill:#666666;fill-opacity:0.38934434;stroke:#a1a1a1;stroke-width:0.75953686;stroke-linecap:square;stroke-linejoin:miter;stroke-miterlimit:4;stroke-opacity:1;stroke-dasharray:none"
       inkscape:connector-curvature="0" />
    <path
       inkscape:connector-curvature="0"
       sodipodi:nodetypes="cc"
       id="path3154-8"
       d="m 177.23259,971.5272 -68.34886,47.2478"
       style="fill:none;stroke:#a3a4a4;stroke-width:0.75953686;stroke-linecap:butt;stroke-linejoin:miter;stroke-miterlimit:4;stroke-opacity:1;stroke-dasharray:none" />
    <path
       sodipodi:nodetypes="cc"
       id="path2160"
       d="m 15.306782,907.93101 2e-6,112.57039"
       style="fill:none;stroke:#000000;stroke-width:1.26589477;stroke-linecap:square;stroke-linejoin:miter;stroke-miterlimit:4;stroke-opacity:1;stroke-dasharray:none"
       inkscape:connector-curvature="0" />
    <path
       inkscape:connector-curvature="0"
       sodipodi:nodetypes="cc"
       id="path3154"
       d="m 179.51561,971.74002 -67.76712,47.48208"
       style="fill:none;stroke:#a3a4a4;stroke-width:0.75953686;stroke-linecap:butt;stroke-linejoin:miter;stroke-miterlimit:4;stroke-opacity:1;stroke-dasharray:none" />
    <path
       sodipodi:nodetypes="cc"
       id="path3164"
       d="m 84.446142,858.87275 -3.83e-4,112.57292"
       style="fill:#666666;fill-opacity:0.38934434;stroke:#a1a1a2;stroke-width:0.75953686;stroke-linecap:square;stroke-linejoin:miter;stroke-miterlimit:4;stroke-opacity:1;stroke-dasharray:none"
       inkscape:connector-curvature="0" />
    <path
       sodipodi:nodetypes="cc"
       id="path3166"
       d="m 178.5337,858.87227 -3.9e-4,112.57281"
       style="fill:none;stroke:#a3a2a3;stroke-width:0.75953686;stroke-linecap:square;stroke-linejoin:miter;stroke-miterlimit:4;stroke-opacity:1;stroke-dasharray:none"
       inkscape:connector-curvature="0" />
    <path
       sodipodi:nodetypes="cc"
       id="path3170"
       d="m 178.53327,971.44508 -92.413139,4.7e-4"
       style="fill:#666666;fill-opacity:0.38934434;stroke:#a3a4a3;stroke-width:0.75953686;stroke-linecap:square;stroke-linejoin:miter;stroke-miterlimit:4;stroke-opacity:1;stroke-dasharray:none"
       inkscape:connector-curvature="0" />
    <path
       inkscape:connector-curvature="0"
       sodipodi:nodetypes="cc"
       id="path3172"
       d="m 178.38814,858.28637 -69.51243,48.88819"
       style="fill:none;stroke:#000000;stroke-width:0.75953686;stroke-linecap:butt;stroke-linejoin:miter;stroke-miterlimit:4;stroke-opacity:1;stroke-dasharray:none" />
    <path
       inkscape:connector-curvature="0"
       sodipodi:nodetypes="cc"
       id="path3174"
       d="M 84.762649,858.28687 15.250144,907.17513"
       style="fill:none;stroke:#000000;stroke-width:1.26589477;stroke-linecap:butt;stroke-linejoin:miter;stroke-miterlimit:4;stroke-opacity:1;stroke-dasharray:none" />
    <path
       inkscape:connector-curvature="0"
       sodipodi:nodetypes="cc"
       id="path3176"
       d="m 84.771518,971.4641 -69.51223,48.8871"
       style="fill:#4d4d4d;fill-opacity:0.38934434;stroke:#a2a2a3;stroke-width:0.75953686;stroke-linecap:butt;stroke-linejoin:miter;stroke-miterlimit:4;stroke-opacity:1;stroke-dasharray:none" />
    <path
       sodipodi:nodetypes="cc"
       id="path2160-9"
       d="m 110.52513,907.94864 0,112.57036"
       style="fill:none;stroke:#000000;stroke-width:1.26589477;stroke-linecap:square;stroke-linejoin:miter;stroke-miterlimit:4;stroke-opacity:1;stroke-dasharray:none"
       inkscape:connector-curvature="0" />
    <path
       sodipodi:nodetypes="cc"
       id="path3134-4"
       d="m 204.6126,907.94864 0,112.57036"
       style="fill:none;stroke:#000000;stroke-width:1.26589477;stroke-linecap:square;stroke-linejoin:miter;stroke-miterlimit:4;stroke-opacity:1;stroke-dasharray:none"
       inkscape:connector-curvature="0" />
    <path
       sodipodi:nodetypes="cc"
       id="path3142-1"
       d="m 204.6126,1020.519 -188.965535,0"
       style="fill:none;stroke:#000000;stroke-width:1.81018233;stroke-linecap:square;stroke-linejoin:miter;stroke-miterlimit:4;stroke-opacity:1;stroke-dasharray:none"
       inkscape:connector-curvature="0" />
    <path
       inkscape:connector-curvature="0"
       sodipodi:nodetypes="cc"
       id="path3154-9"
       d="m 274.63828,972.0456 -69.51275,48.8881"
       style="fill:none;stroke:#000000;stroke-width:1.26589477;stroke-linecap:butt;stroke-linejoin:miter;stroke-miterlimit:4;stroke-opacity:1;stroke-dasharray:none" />
    <path
       sodipodi:nodetypes="cc"
       id="path3164-2"
       d="m 180.12653,859.45478 -7.7e-4,112.57272"
       style="fill:#666666;fill-opacity:0.38934434;stroke:#a4a3a5;stroke-width:0.75953686;stroke-linecap:square;stroke-linejoin:miter;stroke-miterlimit:4;stroke-opacity:1;stroke-dasharray:none"
       inkscape:connector-curvature="0" />
    <path
       sodipodi:nodetypes="cc"
       id="path3166-4"
       d="m 274.21443,859.45439 0,112.57279"
       style="fill:none;stroke:#000000;stroke-width:1.26589477000000006;stroke-linecap:round;stroke-linejoin:miter;stroke-miterlimit:4;stroke-opacity:1;stroke-dasharray:none"
       inkscape:connector-curvature="0" />
    <path
       sodipodi:nodetypes="cc"
       id="path3168-3"
       d="m 273.29683,858.52674 -188.394581,2.8e-4"
       style="fill:none;stroke:#000000;stroke-width:1.77800000000000002;stroke-linecap:round;stroke-linejoin:miter;stroke-miterlimit:4;stroke-opacity:1;stroke-dasharray:none"
       inkscape:connector-curvature="0" />
    <path
       inkscape:connector-curvature="0"
       sodipodi:nodetypes="cc"
       id="path3172-6"
       d="m 274.06888,858.86846 -69.5132,48.88793"
       style="fill:none;stroke:#000000;stroke-width:1.26589477000000006;stroke-linecap:round;stroke-linejoin:miter;stroke-miterlimit:4;stroke-opacity:1;stroke-dasharray:none" />
    <path
       inkscape:connector-curvature="0"
       sodipodi:nodetypes="cc"
       id="path3174-4"
       d="m 178.60791,858.8689 -69.51094,48.88857"
       style="fill:none;stroke:#000000;stroke-width:0.75953686;stroke-linecap:butt;stroke-linejoin:miter;stroke-miterlimit:4;stroke-opacity:1;stroke-dasharray:none" />
    <path
       transform="matrix(0.22939405,0,0,0.27943002,-299.13926,842.54264)"
       d="m 1854.64,535.16406 a 13.131983,28.284271 0 1 1 -26.2639,0 13.131983,28.284271 0 1 1 26.2639,0 z"
       sodipodi:ry="28.284271"
       sodipodi:rx="13.131983"
       sodipodi:cy="535.16406"
       sodipodi:cx="1841.5081"
       id="path4643"
       style="fill:none;stroke:#323232;stroke-width:3;stroke-miterlimit:4;stroke-opacity:1;stroke-dasharray:none;stroke-dashoffset:0"
       sodipodi:type="arc" />
    <path
       transform="matrix(0.22939405,0,0,0.27943002,-285.93103,831.25167)"
       d="m 1854.64,535.16406 a 13.131983,28.284271 0 1 1 -26.2639,0 13.131983,28.284271 0 1 1 26.2639,0 z"
       sodipodi:ry="28.284271"
       sodipodi:rx="13.131983"
       sodipodi:cy="535.16406"
       sodipodi:cx="1841.5081"
       id="path4643-6"
       style="fill:none;stroke:#323232;stroke-width:3;stroke-miterlimit:4;stroke-opacity:1;stroke-dasharray:none;stroke-dashoffset:0"
       sodipodi:type="arc" />
    <path
       transform="matrix(0.22939405,0,0,0.27943002,-272.49101,823.91246)"
       d="m 1854.64,535.16406 a 13.131983,28.284271 0 1 1 -26.2639,0 13.131983,28.284271 0 1 1 26.2639,0 z"
       sodipodi:ry="28.284271"
       sodipodi:rx="13.131983"
       sodipodi:cy="535.16406"
       sodipodi:cx="1841.5081"
       id="path4643-8"
       style="fill:none;stroke:#323232;stroke-width:3;stroke-miterlimit:4;stroke-opacity:1;stroke-dasharray:none;stroke-dashoffset:0"
       sodipodi:type="arc" />
    <path
       transform="matrix(0.22939405,0,0,0.27943002,-261.83171,816.57328)"
       d="m 1854.64,535.16406 a 13.131983,28.284271 0 1 1 -26.2639,0 13.131983,28.284271 0 1 1 26.2639,0 z"
       sodipodi:ry="28.284271"
       sodipodi:rx="13.131983"
       sodipodi:cy="535.16406"
       sodipodi:cx="1841.5081"
       id="path4643-9"
       style="fill:none;stroke:#323232;stroke-width:3;stroke-miterlimit:4;stroke-opacity:1;stroke-dasharray:none;stroke-dashoffset:0"
       sodipodi:type="arc" />
    <path
       sodipodi:nodetypes="cc"
       inkscape:connector-curvature="0"
       id="path4780"
       d="M 149.01819,982.30274 C 186.45303,986.8628 190.40795,846.8875 190.40795,846.8875"
       style="fill:none;stroke:#d45500;stroke-width:1.26589477;stroke-linecap:butt;stroke-linejoin:miter;stroke-miterlimit:4;stroke-opacity:1;stroke-dasharray:none" />
    <path
       inkscape:connector-curvature="0"
       id="path5110"
       d=""
       style="fill:none;stroke:#a3a2a3;stroke-width:1.51522887;stroke-linecap:round;stroke-miterlimit:4;stroke-opacity:1;stroke-dasharray:none;stroke-dashoffset:0" />
    <path
       inkscape:connector-curvature="0"
       id="path5122"
       d=""
       style="fill:none;stroke:#a3a2a3;stroke-width:1.51522887;stroke-linecap:round;stroke-miterlimit:4;stroke-opacity:1;stroke-dasharray:none;stroke-dashoffset:0" />
    <path
       sodipodi:nodetypes="cscc"
       inkscape:connector-curvature="0"
       id="path5134"
       d="m 228.32535,963.57244 c 0,0 0.83993,0.92856 -0.54488,20.65777 -0.62636,8.92369 -12.16889,4.26269 -12.16889,4.26269 l 0,0"
       style="fill:none;stroke:#8d5fd3;stroke-width:2.53178954000000012;stroke-linecap:round;stroke-linejoin:miter;stroke-miterlimit:4;stroke-opacity:1;stroke-dasharray:none" />
    <path
       sodipodi:nodetypes="cscc"
       inkscape:connector-curvature="0"
       id="path5134-2"
       d="m 258.67616,939.01821 c 0,0 0.83992,0.92855 -0.54487,20.65777 -0.62638,8.92368 -12.16892,4.26271 -12.16892,4.26271 l 0,0"
       style="fill:none;stroke:#4d4d4d;stroke-width:2.53178954000000012;stroke-linecap:round;stroke-linejoin:miter;stroke-miterlimit:4;stroke-opacity:1;stroke-dasharray:none" />
    <path
       sodipodi:nodetypes="ccsc"
       inkscape:connector-curvature="0"
       id="path5154"
       d="m 228.79011,977.54354 c 0,-9.55493 -0.22536,-0.54278 -0.22536,-0.54278 0,0 -3.70492,-32.82973 5.41487,-2.20499 9.11977,30.62473 19.66452,25.96983 19.66452,25.96983"
       style="fill:none;stroke:#8d5fd3;stroke-width:0.84397423000000005;stroke-linecap:butt;stroke-linejoin:miter;stroke-miterlimit:4;stroke-opacity:1;stroke-dasharray:none;fill-opacity:1" />
    <path
       d="m 80.150519,1021.0377 c 0.523893,-0.179 1.12903,-0.7047 1.512516,-1.0839 4.760261,-4.7069 6.475783,-12.8876 10.938485,-16.6207 1.21331,-1.0149 2.45236,-1.3327 4.02565,-1.3364 1.57333,0 3.40341,0.3324 4.99273,-1.9196 0.46264,-0.6555 0.59219,-0.7295 1.11388,-0.636 0.67538,0.1211 3.39505,-0.302 3.89847,-0.6065 0.21883,-0.1324 0.84671,-0.097 1.79849,0.1022 1.5182,0.3172 1.58907,0.3689 2.53035,1.8462 0.36194,0.5681 0.49517,0.6676 0.58867,0.4397 0.11557,-0.2816 0.0795,-0.835 -0.10399,-1.5956 -0.0657,-0.2728 -0.0266,-0.3176 0.17217,-0.1977 0.14147,0.085 0.33939,0.2843 0.43985,0.4422 0.10041,0.1579 0.26474,0.2871 0.36522,0.2871 0.10045,-2e-4 0.21992,0.1547 0.26555,0.3437 0.14308,0.5933 0.39467,0.088 0.30629,-0.6157 -0.0734,-0.5838 -0.0505,-0.645 0.2018,-0.54 0.4286,0.1782 0.49279,-0.4414 0.11246,-1.0858 l -0.32844,-0.5563 0.38159,0.1523 c 0.31798,0.127 0.36703,0.092 0.29421,-0.2101 -0.0481,-0.1993 -0.26599,-0.5092 -0.48423,-0.6888 -0.21826,-0.1795 -0.38172,-0.4434 -0.36327,-0.5864 0.0185,-0.1429 -0.22305,-0.4055 -0.53667,-0.5835 l -0.57019,-0.3238 -0.67351,0.4518 c -0.72491,0.4862 -1.70997,0.834 -1.70998,0.6037 -1.9e-4,-0.078 0.29663,-0.5655 0.65917,-1.084 0.36254,-0.5186 0.74478,-1.1974 0.84945,-1.5085 l 0.19029,-0.5657 1.61706,0 c 0.88934,-10e-4 1.78704,-0.1047 1.99478,-0.2303 0.3064,-0.1853 0.52582,-0.1286 1.16121,0.2993 0.43077,0.2909 1.1776,0.7938 1.65966,1.1176 0.80666,0.5419 2.04177,1.8409 2.25195,2.3685 0.11353,0.2849 0.39545,0.011 0.39545,-0.3837 0,-0.2235 0.12693,-0.2703 0.48368,-0.1781 l 0.48349,0.1258 2e-5,-0.5578 c -2e-5,-0.4495 0.0536,-0.5355 0.27637,-0.4428 0.31516,0.1311 0.33991,0 0.12399,-0.6383 -0.11181,-0.3324 -0.11091,-0.4939 0.003,-0.6063 0.32183,-0.3164 -0.37997,-0.918 -1.31726,-1.1292 -0.89427,-0.2016 -1.57375,-0.6553 -1.57375,-1.0511 2e-5,-0.266 0.47821,-0.9084 0.67624,-0.9084 0.094,-10e-5 0.46215,0.1897 0.81823,0.4215 0.93274,0.6072 1.82211,0.7783 1.8221,0.3505 4e-5,-0.2227 0.13677,-0.3323 0.41456,-0.3323 0.27639,-10e-5 0.41458,-0.11 0.41459,-0.3298 1e-5,-0.1814 0.0621,-0.3298 0.13818,-0.3298 0.26757,0 0.13118,-0.3353 -0.34717,-0.8536 -0.29574,-0.3204 -0.78374,-0.5764 -1.25681,-0.6595 l -0.77332,-0.1357 0.55449,-1.0008 c 0.80831,-1.4589 1.53175,-2.1696 2.68852,-2.64102 0.5639,-0.22986 1.36159,-0.66215 1.77264,-0.96073 0.41102,-0.29863 1.08935,-0.6404 1.50736,-0.75956 0.41803,-0.11925 1.00879,-0.32011 1.3128,-0.44663 0.30405,-0.12645 0.72263,-0.28241 0.93029,-0.3466 0.20759,-0.0642 0.58092,-0.3873 0.82956,-0.71804 0.24868,-0.33079 0.57628,-0.71094 0.72805,-0.84488 0.55106,-0.48608 0.41396,-0.975 -0.77934,-2.77894 -1.62329,-2.45394 -2.92986,-3.7866 -4.42026,-4.50838 -0.95452,-0.46229 -1.2267,-0.68249 -1.22671,-0.99228 0,-0.53745 -0.4601,-1.9386 -0.79462,-2.41983 -0.32423,-0.46646 -0.44298,-0.30263 -0.8291,1.14371 l -0.2541,0.95177 -0.40845,-0.70279 c -0.89969,-1.54805 -2.22037,-2.02932 -2.81335,-1.02516 -0.17116,0.28981 -0.38732,1.0019 -0.48038,1.58239 l -0.16927,1.05554 -0.87555,0.85183 c -0.48159,0.46853 -0.97583,0.85148 -1.09834,0.85096 -0.12256,-2.8e-4 -0.56866,-0.20044 -0.99138,-0.4443 -2.74521,-1.58366 -8.16138,-0.79777 -11.18493,1.62301 -2.64747,2.11967 -4.13813,5.06506 -4.85916,9.60103 -0.24544,1.5454 -0.27714,2.2598 -0.22059,5.0044 0.042,2.0428 0.15492,3.744 0.3118,4.7001 l 0.24587,1.4986 c 0,0 -0.18926,0.3676 -0.66029,1.2824 -0.471,0.9149 -1.48987,1.083 -3.18665,1.0473 -1.69681,-0.036 -3.11029,0.7129 -4.414605,1.9823 -3.529974,3.4354 -5.253989,10.2835 -8.44275,14.4792 -1.361763,1.7919 -1.865657,2.9623 -4.494138,4.4741 -0.303184,0.1744 -0.578791,0.2335 -0.578787,0.339 1.6e-5,0.2675 1.021725,0.2071 1.967847,-0.1163 z"
       id="path2989-0-9"
       style="fill:#1d1e1e;fill-opacity:0.69262294"
       inkscape:connector-curvature="0" />
    <text
       xml:space="preserve"
       style="font-size:40px;font-style:normal;font-weight:normal;line-height:125%;letter-spacing:0px;word-spacing:0px;fill:#000000;fill-opacity:1;stroke:none;font-family:Bitstream Vera Sans"
       x="13.626938"
       y="1036.0154"
       id="text5745"
       sodipodi:linespacing="125%"><tspan
         sodipodi:role="line"
         id="tspan5747"
         x="13.626938"
         y="1036.0154"
         style="font-size:11px;font-weight:normal"> Demonstrator    Self-administrator</tspan></text>
    <text
       xml:space="preserve"
       style="font-size:40px;font-style:normal;font-weight:normal;line-height:125%;letter-spacing:0px;word-spacing:0px;fill:#d45500;fill-opacity:1;stroke:none;font-family:Bitstream Vera Sans"
       x="169.97165"
       y="842.71161"
       id="text5749"
       sodipodi:linespacing="125%"><tspan
         sodipodi:role="line"
         id="tspan5751"
         x="169.97165"
         y="842.71161"
         style="font-size:11px;font-weight:bold;fill:#d45500">Nicotine</tspan></text>
    <text
       xml:space="preserve"
       style="font-size:40px;font-style:normal;font-weight:normal;line-height:125%;letter-spacing:0px;word-spacing:0px;fill:#4d4d4d;fill-opacity:1;stroke:none;font-family:Bitstream Vera Sans"
       x="223.10225"
       y="934.13477"
       id="text5763"
       sodipodi:linespacing="125%"><tspan
         sodipodi:role="line"
         x="223.10225"
         y="934.13477"
         id="tspan5767"
         style="font-size:11px;font-weight:bold;fill:#4d4d4d">Inactive</tspan></text>
    <text
       xml:space="preserve"
       style="font-size:40px;font-style:normal;font-weight:normal;line-height:125%;letter-spacing:0px;word-spacing:0px;fill:#8d5fd3;fill-opacity:1;stroke:none;font-family:Bitstream Vera Sans"
       x="23.852478"
       y="936.36719"
       id="text5769"
       sodipodi:linespacing="125%"><tspan
         sodipodi:role="line"
         x="23.852478"
         y="936.36719"
         id="tspan5773"
         style="font-size:11px;font-weight:bold;fill:#8d5fd3">Flavor</tspan><tspan
         sodipodi:role="line"
         x="23.852478"
         y="950.11719"
         id="tspan5779"
         style="font-size:11px;font-weight:bold;fill:#8d5fd3">cue</tspan></text>
    <text
       xml:space="preserve"
       style="font-size:40px;font-style:normal;font-weight:normal;line-height:125%;letter-spacing:0px;word-spacing:0px;fill:#000000;fill-opacity:1;stroke:none;font-family:Bitstream Vera Sans"
       x="207.30344"
       y="957.40668"
       id="text5781"
       sodipodi:linespacing="125%"><tspan
         sodipodi:role="line"
         x="207.30344"
         y="957.40668"
         style="font-size:11px;font-weight:bold"
         id="tspan5785">Active </tspan></text>
    <flowRoot
       xml:space="preserve"
       id="flowRoot6046"
       style="font-size:40px;font-style:normal;font-weight:normal;line-height:125%;letter-spacing:0px;word-spacing:0px;fill:#000000;fill-opacity:1;stroke:none;font-family:Bitstream Vera Sans"><flowRegion
         id="flowRegion6048"><rect
           id="rect6050"
           width="1277.1428"
           height="1185.7142"
           x="914.28571"
           y="129.50504" /></flowRegion><flowPara
         id="flowPara6052" /></flowRoot>    <path
       d="m 196.98991,1018.8493 c -0.59677,-0.1536 -1.28604,-0.6048 -1.72287,-0.9303 -5.42232,-4.0398 -7.37646,-11.0609 -12.45984,-14.2649 -1.38204,-0.8711 -2.79343,-1.1439 -4.58556,-1.147 -1.79213,0 -3.87673,0.2853 -5.68708,-1.6475 -0.52701,-0.5627 -0.6746,-0.6262 -1.26884,-0.5459 -0.76931,0.1039 -3.86725,-0.2592 -4.4407,-0.5206 -0.24923,-0.1135 -0.96444,-0.083 -2.04859,0.088 -1.72937,0.2723 -1.81009,0.3167 -2.88228,1.5846 -0.41229,0.4876 -0.56406,0.573 -0.67056,0.3774 -0.13164,-0.2418 -0.0906,-0.7167 0.11844,-1.3696 0.0749,-0.234 0.0304,-0.2724 -0.19609,-0.1696 -0.16115,0.073 -0.3866,0.244 -0.501,0.3796 -0.11441,0.1355 -0.30162,0.2464 -0.41604,0.2464 -0.11439,-10e-5 -0.25052,0.1327 -0.30247,0.295 -0.163,0.5092 -0.4496,0.075 -0.3489,-0.5285 0.0836,-0.501 0.0575,-0.5536 -0.22989,-0.4635 -0.48821,0.153 -0.56132,-0.3789 -0.12806,-0.9318 l 0.37409,-0.4775 -0.43466,0.1307 c -0.36225,0.1089 -0.41808,0.079 -0.3351,-0.1803 0.0547,-0.1711 0.30296,-0.4371 0.55156,-0.5912 0.24861,-0.1541 0.43482,-0.3806 0.4138,-0.5032 -0.021,-0.1227 0.25407,-0.3481 0.61129,-0.5009 l 0.64948,-0.2778 0.76721,0.3877 c 0.82572,0.4173 1.94778,0.7158 1.94779,0.5181 -1e-5,-0.067 -0.33787,-0.4854 -0.75083,-0.9304 -0.41295,-0.4451 -0.84837,-1.0277 -0.96759,-1.2947 l -0.21676,-0.4855 -1.84194,-10e-4 c -1.01307,-10e-4 -2.03559,-0.09 -2.27226,-0.1977 -0.34901,-0.1591 -0.59893,-0.1103 -1.32249,0.2578 -0.49069,0.2496 -1.34141,0.6812 -1.89049,0.9592 -0.91887,0.465 -2.32574,1.5799 -2.56515,2.0327 -0.12932,0.2446 -0.45047,0.01 -0.45048,-0.3293 1e-5,-0.1918 -0.14456,-0.2319 -0.55089,-0.1531 l -0.55095,0.1072 1e-5,-0.4788 c 0,-0.3858 -0.0611,-0.4596 -0.31482,-0.38 -0.359,0.1125 -0.38717,0 -0.14116,-0.5478 0.12738,-0.2853 0.12637,-0.424 -0.004,-0.5204 -0.3666,-0.2716 0.43279,-0.7879 1.50046,-0.9692 1.01864,-0.1729 1.79262,-0.5624 1.79261,-0.9021 0,-0.2283 -0.54472,-0.7796 -0.77026,-0.7796 -0.10703,1e-4 -0.52643,0.1628 -0.93207,0.3617 -1.06242,0.5212 -2.07551,0.668 -2.07551,0.3009 0,-0.1912 -0.15576,-0.2853 -0.47223,-0.2852 -0.31482,-1e-4 -0.47223,-0.094 -0.47223,-0.2831 0,-0.1557 -0.0708,-0.283 -0.15741,-0.283 -0.30478,0 -0.14942,-0.2878 0.39547,-0.7327 0.33688,-0.2749 0.89275,-0.4947 1.43159,-0.566 l 0.88088,-0.1165 -0.63161,-0.8589 c -0.92071,-1.2522 -1.74479,-1.8621 -3.06243,-2.2667 -0.64235,-0.1973 -1.55098,-0.5683 -2.01918,-0.8246 -0.4682,-0.2563 -1.24086,-0.5496 -1.71702,-0.6519 -0.47617,-0.1022 -1.14908,-0.2748 -1.49541,-0.3832 -0.34632,-0.1085 -0.82312,-0.2426 -1.05962,-0.2976 -0.23646,-0.055 -0.66173,-0.3324 -0.94497,-0.61629 -0.28325,-0.28388 -0.65644,-0.61015 -0.8293,-0.72509 -0.62772,-0.41717 -0.47154,-0.83682 0.88773,-2.38507 1.84906,-2.10617 3.33736,-3.24989 5.03502,-3.86939 1.08727,-0.39678 1.39734,-0.58578 1.39733,-0.85167 1e-5,-0.46123 0.52412,-1.66381 0.90515,-2.07685 0.36932,-0.40037 0.50458,-0.25975 0.94441,0.98164 l 0.28941,0.81682 0.46527,-0.60318 c 1.02486,-1.32862 2.52921,-1.74167 3.20466,-0.87981 0.19493,0.2487 0.44118,0.85986 0.54721,1.3581 l 0.19278,0.9059 0.99734,0.73114 c 0.54854,0.40211 1.11153,0.73075 1.25111,0.7303 0.13957,-2.8e-4 0.64772,-0.172 1.12925,-0.3813 3.127,-1.3592 9.29646,-0.68469 12.74055,1.39297 3.01568,1.81924 4.71368,4.34717 5.53498,8.24028 0.27981,1.3263 0.31568,1.9395 0.2513,4.2951 -0.0479,1.7532 -0.17649,3.2133 -0.35522,4.0339 l -0.28011,1.2862 c 0,0 0.21558,0.3155 0.75211,1.1006 0.53652,0.7853 1.69709,0.9295 3.62996,0.8985 1.9328,-0.031 3.54285,0.6119 5.02858,1.7014 4.02092,2.9485 5.98471,8.826 9.61698,12.427 1.55116,1.5379 2.12515,2.5424 5.11922,3.8399 0.34532,0.1497 0.65927,0.2005 0.65926,0.291 0,0.2296 -1.16384,0.1778 -2.24154,-0.1 z"
       id="path2989-0"
       style="fill:#030303"
       inkscape:connector-curvature="0" />
    <path
       sodipodi:nodetypes="cc"
       id="path3134"
       d="m 108.93081,907.36648 0,112.57042"
       style="fill:none;stroke:#000000;stroke-width:1.26589477;stroke-linecap:square;stroke-linejoin:miter;stroke-miterlimit:4;stroke-opacity:1;stroke-dasharray:none"
       inkscape:connector-curvature="0" />
    <path
       sodipodi:nodetypes="cc"
       id="path3140-1"
       d="m 204.6126,907.94864 -189.439631,0"
       style="fill:none;stroke:#000000;stroke-width:1.81245159999999994;stroke-linecap:round;stroke-linejoin:miter;stroke-miterlimit:4;stroke-opacity:1;stroke-dasharray:none"
       inkscape:connector-curvature="0" />
    <path
       style="fill:#a0a0a2;fill-opacity:0.16803278;stroke:#a2a2a3;stroke-width:0.10656784;stroke-linecap:round;stroke-miterlimit:4;stroke-opacity:1;stroke-dasharray:none;stroke-dashoffset:0"
       d="m 17.896808,1019.1684 c 0.101319,-0.108 15.208956,-10.7553 33.572526,-23.6607 l 33.38831,-23.46438 11.744946,0 11.74495,0 0,1.35699 0,1.357 -0.92108,0.29734 c -4.64279,1.49871 -7.60151,6.38614 -8.10424,13.38715 -0.11182,1.5572 0.13707,6.5936 0.42383,8.5764 0.0889,0.6149 -0.0139,0.8801 -0.65828,1.6984 -0.71085,0.9028 -0.83613,0.97 -1.81172,0.9716 -1.71009,0 -3.51032,0.4523 -4.43871,1.1081 -2.021291,1.4278 -3.383986,3.4322 -6.014144,8.8464 -2.034106,4.1872 -3.017077,5.8482 -4.730215,7.993 l -1.38102,1.7289 -31.499687,0 c -17.324826,0 -31.416786,-0.088 -31.315466,-0.1962 z"
       id="path3935"
       inkscape:connector-curvature="0" />
    <path
       style="fill:#a0a0a2;fill-opacity:0.16803278;stroke:#a2a2a3;stroke-width:0.01332098;stroke-linecap:round;stroke-miterlimit:4;stroke-opacity:1;stroke-dasharray:none;stroke-dashoffset:0"
       d="m 123.06403,999.5197 c -0.26775,-0.073 -0.47553,-0.2289 -0.75929,-0.5711 -0.14063,-0.1696 -0.31115,-0.4072 -0.37892,-0.528 -0.29535,-0.5264 -0.56243,-1.2128 -0.75949,-1.9518 -0.0992,-0.3721 -0.10212,-0.3939 -0.0854,-0.6369 0.0119,-0.1724 0.0309,-0.2719 0.0602,-0.3157 0.0423,-0.063 0.0451,-0.063 0.21541,-0.018 0.29002,0.077 0.31595,-0.02 0.15088,-0.5643 -0.1264,-0.4166 -0.13175,-0.5444 -0.0288,-0.6861 0.12407,-0.1707 0.097,-0.3251 -0.0939,-0.5347 -0.0931,-0.1023 -0.35772,-0.2869 -0.53824,-0.3755 -0.13191,-0.065 -0.16484,-0.094 -0.17473,-0.1557 -0.007,-0.042 -0.0195,-0.348 -0.0284,-0.6807 l -0.0162,-0.6047 0.19099,0.082 c 0.30651,0.1308 0.54276,0.1835 0.77039,0.172 0.24157,-0.012 0.29502,-0.054 0.31914,-0.2482 0.022,-0.1774 0.1112,-0.2646 0.29497,-0.2884 0.3575,-0.046 0.37521,-0.051 0.44651,-0.1284 0.0556,-0.06 0.0756,-0.1132 0.0899,-0.2385 0.024,-0.2103 0.0626,-0.291 0.1494,-0.312 0.21794,-0.053 0.13157,-0.2928 -0.27256,-0.7579 -0.13653,-0.1571 -0.30162,-0.3129 -0.41147,-0.3882 -0.24408,-0.1672 -0.67318,-0.3379 -1.00137,-0.3984 -0.37423,-0.069 -0.37254,-0.068 -0.36232,-0.1273 0.005,-0.028 0.0435,-0.2423 0.0857,-0.4758 l 0.0768,-0.4244 0.17173,-0.293 c 0.61103,-1.0425 1.15982,-1.6422 1.92866,-2.10775 0.16671,-0.10095 1.13641,-0.55868 1.25428,-0.59206 0.0623,-0.0176 0.20085,0.17958 0.40746,0.57977 1.04377,2.02174 1.44581,5.58714 0.99353,8.81104 -0.16071,1.1456 -0.38783,2.0262 -0.75144,2.9137 -0.39055,0.9531 -0.85838,1.5817 -1.33179,1.7893 -0.19707,0.086 -0.42413,0.1074 -0.6117,0.057 l 0,0 z"
       id="path3939"
       inkscape:connector-curvature="0" />
    <path
       style="fill:#a0a0a2;fill-opacity:0.16803278;stroke:#a2a2a3;stroke-width:0.01332098;stroke-linecap:round;stroke-miterlimit:4;stroke-opacity:1;stroke-dasharray:none;stroke-dashoffset:0"
       d="m 119.67599,992.9467 c -0.6741,-0.2538 -1.07927,-0.5923 -1.07842,-0.901 3.9e-4,-0.2011 0.39662,-0.7794 0.5853,-0.8546 0.0966,-0.038 0.20885,-2e-4 0.54689,0.1866 l 0.19921,0.1102 0.007,0.7724 c 0.004,0.5017 -0.002,0.7717 -0.0174,0.7704 -0.0133,-9e-4 -0.12241,-0.039 -0.24239,-0.084 z"
       id="path3941"
       inkscape:connector-curvature="0" />
    <path
       style="fill:#a0a0a2;fill-opacity:0.16803278;stroke:#a2a2a3;stroke-width:0.01332098;stroke-linecap:round;stroke-miterlimit:4;stroke-opacity:1;stroke-dasharray:none;stroke-dashoffset:0"
       d="m 136.22527,988.2142 c -0.84751,-0.2757 -1.63606,-1.7855 -2.05645,-3.93724 -0.59493,-3.04523 -0.34085,-6.79721 0.61599,-9.09614 0.38834,-0.93304 0.84482,-1.53963 1.33389,-1.77252 0.1092,-0.052 0.18583,-0.0652 0.37924,-0.0652 0.27839,0 0.41379,0.0505 0.66792,0.24888 0.72407,0.56538 1.36592,2.04059 1.70579,3.92058 0.40684,2.25042 0.36373,5.02301 -0.11066,7.11577 -0.56331,2.48507 -1.56504,3.90157 -2.53572,3.58587 l 0,0 z"
       id="path3943"
       inkscape:connector-curvature="0" />
    <path
       style="fill:#a0a0a2;fill-opacity:0.16803278;stroke:#a2a2a3;stroke-width:0.01332098;stroke-linecap:round;stroke-miterlimit:4;stroke-opacity:1;stroke-dasharray:none;stroke-dashoffset:0"
       d="m 109.50767,996.374 0,-0.2018 0.21209,-0.3229 0.21209,-0.3228 0.007,0.4556 c 0.004,0.2505 0.002,0.462 -0.005,0.4698 -0.0116,0.014 -0.37161,0.1232 -0.40757,0.1237 -0.01,10e-5 -0.0182,-0.091 -0.0182,-0.2016 z"
       id="path3947"
       inkscape:connector-curvature="0" />
    <path
       style="fill:#a0a0a2;fill-opacity:0.16803278;stroke:#a2a2a3;stroke-width:0.10656784;stroke-linecap:round;stroke-miterlimit:4;stroke-opacity:1;stroke-dasharray:none;stroke-dashoffset:0"
       d="m 83.483262,1017.9294 c 0.61005,-0.8053 1.678415,-2.5184 2.374143,-3.8068 0.695732,-1.2885 1.889464,-3.5023 2.652741,-4.9195 1.718835,-3.1917 3.511124,-5.4375 5.033814,-6.3078 0.97382,-0.5565 1.47659,-0.6682 3.69691,-0.8208 2.78822,-0.1916 3.27935,-0.3986 4.4479,-1.8742 0.5131,-0.6479 0.68604,-0.7192 1.74522,-0.7195 0.64662,-1e-4 1.7865,-0.1351 2.53306,-0.2999 0.74657,-0.1648 1.55373,-0.2627 1.7937,-0.2177 l 0.43631,0.082 0,10.1742 0,10.1742 -12.91149,0 -12.911488,0 1.10918,-1.4641 z"
       id="path3949"
       inkscape:connector-curvature="0" />
    <path
       style="fill:#a0a0a2;fill-opacity:0.16803278;stroke:#a2a2a3;stroke-width:0.05328392;stroke-linecap:round;stroke-miterlimit:4;stroke-opacity:1;stroke-dasharray:none;stroke-dashoffset:0"
       d="m 148.45942,976.62707 c -0.3311,-0.91819 -0.55113,-1.19263 -0.81789,-1.02016 -0.17328,0.11204 -0.19391,0.0717 -0.24961,-0.48848 -0.0334,-0.33583 -0.0611,-1.12538 -0.0616,-1.75455 l -7.7e-4,-1.14395 2.59359,0.0312 2.59359,0.0312 -0.007,1.40558 c -0.004,0.77307 -0.0382,1.59926 -0.0757,1.83599 -0.0676,0.42558 -0.0713,0.42854 -0.33195,0.26427 -0.71345,-0.44964 -1.86768,-0.0334 -2.77174,0.99954 -0.28394,0.32442 -0.53506,0.58986 -0.55803,0.58986 -0.023,0 -0.16356,-0.33773 -0.31241,-0.7505 z"
       id="path3953"
       inkscape:connector-curvature="0" />
    <path
       style="fill:#a0a0a2;fill-opacity:0.16803278;stroke:#a2a2a3;stroke-width:0.05328392;stroke-linecap:round;stroke-miterlimit:4;stroke-opacity:1;stroke-dasharray:none;stroke-dashoffset:0"
       d="m 111.16474,1008.9715 0,-7.6591 0.21815,0.01 c 0.17803,0.01 0.22382,-0.062 0.24898,-0.3785 0.017,-0.2133 -0.0105,-0.6218 -0.061,-0.9078 -0.0505,-0.2859 -0.055,-0.5199 -0.01,-0.5199 0.045,0 0.2309,0.1581 0.41311,0.3514 0.1822,0.1933 0.38099,0.3514 0.44175,0.3514 0.0608,0 0.16069,0.1331 0.22206,0.2959 0.17349,0.4599 0.31776,0.2765 0.34947,-0.4443 0.0271,-0.6167 0.045,-0.6593 0.29087,-0.6936 0.34581,-0.048 0.38421,-0.3983 0.11389,-1.0384 l -0.20809,-0.4927 0.2508,0.076 c 0.38175,0.1157 0.32747,-0.2991 -0.11742,-0.8974 -0.20252,-0.2724 -0.43689,-0.628 -0.52082,-0.7903 -0.0839,-0.1623 -0.37418,-0.4204 -0.64499,-0.5736 -0.46845,-0.2651 -0.50443,-0.2691 -0.73962,-0.083 l -0.24722,0.1957 0,-1.1567 0,-1.1567 1.57555,-0.07 c 0.86654,-0.038 1.73503,-0.1327 1.92995,-0.2093 0.34115,-0.134 0.39742,-0.1117 1.50283,0.5955 1.53481,0.9821 2.18495,1.5256 2.96697,2.4804 0.36029,0.4399 0.7007,0.7998 0.75645,0.7998 0.0558,0 0.14701,-0.1581 0.20278,-0.3514 0.12627,-0.4375 0.23552,-0.4475 0.32166,-0.029 0.0365,0.1772 0.23115,0.7438 0.43256,1.2592 1.22112,3.1246 3.26497,3.3857 4.62834,0.5914 1.53604,-3.1482 1.59075,-9.2936 0.11267,-12.65597 -0.11328,-0.25769 -0.26923,-0.55749 -0.34655,-0.66622 -0.12784,-0.17975 -0.0801,-0.23447 0.5255,-0.60294 0.36636,-0.22288 1.29781,-0.62808 2.06989,-0.90045 0.77209,-0.27236 1.51287,-0.56585 1.64618,-0.65221 0.13332,-0.0864 0.55872,-0.51894 0.94533,-0.96129 0.99031,-1.13308 0.96825,-1.29945 -0.46151,-3.47907 -1.37658,-2.09857 -2.95888,-3.6963 -4.36208,-4.40463 -0.98419,-0.49681 -1.09111,-0.61406 -1.26676,-1.38928 l -0.16018,-0.70692 5.29467,1.1e-4 c 2.91206,6e-5 7.94521,0.0351 11.18477,0.0778 l 5.89011,0.0777 0.005,1.3571 c 0.003,0.7464 0.0622,1.77791 0.13182,2.29223 0.10868,0.80215 0.10619,1.01037 -0.0175,1.46415 -0.0793,0.29096 -0.19319,0.58913 -0.25303,0.66261 -0.0598,0.0735 -0.5952,0.34673 -1.18968,0.60723 -2.07344,0.90857 -3.12847,1.71616 -5.17282,3.95964 l -0.24239,0.266 0.0318,-1.72188 c 0.0487,-2.63308 -0.23289,-4.49746 -0.94986,-6.29001 -0.41324,-1.03316 -1.08882,-1.9736 -1.60491,-2.23411 -0.45319,-0.22875 -1.17906,-0.20547 -1.64994,0.0529 -1.64683,0.90372 -2.79031,5.31196 -2.4741,9.53791 0.14365,1.91977 0.40783,3.19931 0.92363,4.4736 0.67786,1.6747 1.45151,2.4522 2.428,2.4403 1.09399,-0.013 1.97355,-1.0523 2.66069,-3.1431 0.12704,-0.38654 0.24096,-0.71933 0.25317,-0.73955 0.0122,-0.0202 0.30742,0.19915 0.65602,0.48748 0.74436,0.61567 0.5669,0.54167 2.58569,1.07767 0.87988,0.2336 2.10154,0.649 2.71478,0.9231 0.61326,0.274 1.50768,0.6442 1.98762,0.8225 0.95157,0.3537 1.5883,0.7153 2.0291,1.1526 l 0.28389,0.2816 -0.57476,0.4065 c -0.39246,0.2776 -36.37329,25.1477 -37.87878,26.182 -0.04,0.027 -0.0727,-3.3967 -0.0727,-7.6092 z"
       id="path3955"
       inkscape:connector-curvature="0" />
    <path
       style="fill:#a0a0a2;fill-opacity:0.16803278;stroke:#a2a2a3;stroke-width:0.05328392;stroke-linecap:round;stroke-miterlimit:4;stroke-opacity:1;stroke-dasharray:none;stroke-dashoffset:0"
       d="m 154.9406,979.52708 c -0.15997,-0.10106 -0.62552,-0.41775 -1.03455,-0.70376 -0.69544,-0.48629 -0.74874,-0.55194 -0.82168,-1.01217 -0.0429,-0.27069 -0.0684,-0.57122 -0.0567,-0.66785 0.0117,-0.0966 0.0862,-0.7028 0.16545,-1.34702 0.0793,-0.64423 0.14491,-1.71159 0.14588,-2.37193 l 0.002,-1.2006 2.45454,0 2.45454,0 0.20552,0.43925 c 0.28398,0.60691 0.90041,1.35471 1.31053,1.58982 0.44668,0.25608 1.18369,0.24605 1.67075,-0.0227 0.42143,-0.23256 1.10268,-1.05993 1.35165,-1.64157 l 0.15615,-0.36478 1.41297,0 1.41298,0 -0.50034,0.69771 c -1.18978,1.65917 -3.141,3.72236 -4.80298,5.0786 -0.86583,0.70655 -0.88055,0.71324 -1.89567,0.86233 -0.56268,0.0826 -1.46663,0.30945 -2.00878,0.50403 -1.12334,0.40316 -1.2226,0.41299 -1.62207,0.16065 z"
       id="path3957"
       inkscape:connector-curvature="0" />
    <path
       style="fill:#a0a0a2;fill-opacity:0.16803278;stroke:#a2a2a3;stroke-width:0.05328392;stroke-linecap:round;stroke-miterlimit:4;stroke-opacity:1;stroke-dasharray:none;stroke-dashoffset:0"
       d="m 159.99826,973.29864 c -0.15123,-0.12429 -0.40527,-0.41699 -0.56456,-0.65044 l -0.2896,-0.42445 1.41293,0 c 0.7771,0 1.41292,0.0417 1.41292,0.0928 0,0.051 -0.19205,0.32044 -0.42677,0.59875 -0.52054,0.61717 -1.08887,0.75821 -1.54492,0.38339 z"
       id="path3959"
       inkscape:connector-curvature="0" />
    <path
       style="fill:#a0a0a2;fill-opacity:0.16803278;stroke:#a2a2a3;stroke-width:0.15070969;stroke-linecap:round;stroke-miterlimit:4;stroke-opacity:1;stroke-dasharray:none;stroke-dashoffset:0"
       d="m 113.78332,1018.5223 c 24.47976,-17.2691 35.41177,-24.7675 35.69501,-24.4835 0.21786,0.2184 0.78591,0.162 1.71166,-0.1702 0.90042,-0.323 1.44531,-0.3803 1.55613,-0.1637 0.22791,0.4455 0.18668,0.4756 -1.37399,1.002 -1.09728,0.3701 -1.39035,0.6273 -1.55314,1.3626 -0.11136,0.5031 -0.0892,0.9063 0.0499,0.9063 0.13779,0 0.25052,0.2042 0.25052,0.4537 0,0.2646 0.41392,0.5347 0.99355,0.6483 0.79122,0.1551 1.17451,0.028 1.88222,-0.6241 0.48877,-0.4503 1.64981,-1.1925 2.58008,-1.6491 1.51439,-0.7434 1.92454,-0.8068 3.91895,-0.6059 2.0339,0.2049 2.29341,0.3135 2.98533,1.249 0.41679,0.5636 0.71963,1.0707 0.67299,1.1271 -0.0466,0.056 -0.53414,-0.1243 -1.08331,-0.4015 -1.14714,-0.5791 -1.89374,-0.3534 -2.82184,0.853 -0.59125,0.7686 -0.62179,2.2625 -0.0463,2.2625 0.13324,0 0.24225,0.2982 0.24225,0.6626 0,0.8016 0.10116,0.8149 0.96947,0.1276 0.64497,-0.5106 0.67594,-0.503 0.67594,0.1656 0,0.9172 0.42436,0.8858 1.39731,-0.1032 1.03571,-1.0529 2.91153,-1.3142 6.46745,-0.9011 2.24852,0.2612 3.04338,0.5027 4.08698,1.2416 1.12342,0.7953 1.71826,0.9516 4.47677,1.1763 1.74966,0.1426 3.64026,0.4512 4.20134,0.6859 1.81446,0.7589 4.19296,3.1855 6.9222,7.0624 4.42687,6.2884 7.11891,8.7664 9.52344,8.7664 1.32781,0 1.33405,-0.4074 0.0147,-0.9609 -2.65476,-1.1136 -5.12536,-3.71 -8.84305,-9.2933 -1.64663,-2.4729 -3.62965,-5.082 -4.40672,-5.7979 -1.68987,-1.5569 -3.73278,-2.4698 -5.60386,-2.5043 -3.71929,-0.068 -4.90521,-1.0065 -4.46007,-3.528 0.14163,-0.8022 0.21584,-3.0607 0.16491,-5.019 -0.0836,-3.2137 -0.17784,-3.7693 -0.96779,-5.7045 -1.02132,-2.50214 -2.12434,-3.89233 -4.14921,-5.22946 l -1.45936,-0.9637 5.52806,-3.85606 5.52806,-3.85606 12.17969,0 12.17969,0 0,23.52228 0,23.5222 -45.7286,-0.01 -45.72859,-0.01 1.37117,-0.9673 0,0 z"
       id="path3961"
       inkscape:connector-curvature="0" />
    <path
       style="fill:#a0a0a2;fill-opacity:0.16803278;stroke:#a2a2a3;stroke-width:0.15070969;stroke-linecap:round;stroke-miterlimit:4;stroke-opacity:1;stroke-dasharray:none;stroke-dashoffset:0"
       d="m 205.24051,996.0174 0,-23.55768 10.96938,0 c 8.59713,0 10.96757,0.0896 10.96102,0.41412 -0.005,0.22777 -0.17363,3.04177 -0.37564,6.25334 -0.4167,6.62495 -0.68586,7.55952 -2.41829,8.39692 -1.18448,0.5726 -4.10556,0.646 -5.97322,0.1502 -2.652,-0.7041 -3.43034,-0.7358 -3.82869,-0.1559 -0.27448,0.3996 -0.30866,0.7942 -0.1238,1.4292 0.21456,0.7371 0.5618,0.9753 2.17249,1.4901 2.27165,0.7261 6.59578,0.8737 8.30861,0.2835 1.68019,-0.579 3.25339,-2.4089 3.72689,-4.3352 0.21241,-0.86405 0.54268,-4.35764 0.73395,-7.76351 l 0.34775,-6.19247 1.47743,0.0977 1.47743,0.0977 1.49514,4.5865 c 2.21474,6.794 4.49634,12.03128 7.09879,16.29488 0.39699,0.6504 -0.16334,1.0754 -17.33959,13.1514 -9.7624,6.8637 -17.96579,12.5778 -18.22974,12.6982 -0.45426,0.2071 -0.47991,-1.0406 -0.47991,-23.3389 z"
       id="path3965"
       inkscape:connector-curvature="0" />
    <path
       style="fill:#a0a0a2;fill-opacity:0.16803278;stroke:#a2a2a3;stroke-width:0.15070969;stroke-linecap:round;stroke-miterlimit:4;stroke-opacity:1;stroke-dasharray:none;stroke-dashoffset:0"
       d="m 241.05905,990.7662 c -1.8514,-3.1808 -3.95556,-8.19811 -5.80171,-13.83395 l -1.41083,-4.30688 9.71265,-0.087 c 5.34196,-0.0479 14.00645,-0.0479 19.25443,0 l 9.54177,0.087 -14.73132,10.3531 c -8.10223,5.69423 -14.80795,10.35313 -14.9016,10.35313 -0.0936,0 -0.84217,-1.1544 -1.66339,-2.5654 z"
       id="path3967"
       inkscape:connector-curvature="0" />
    <path
       sodipodi:type="arc"
       style="fill:#a0a0a2;fill-opacity:0.16803278;stroke:#000006;stroke-width:4;stroke-linecap:round;stroke-miterlimit:4;stroke-opacity:1;stroke-dasharray:none;stroke-dashoffset:0"
       id="path4262"
       sodipodi:cx="927.14288"
       sodipodi:cy="997.36218"
       sodipodi:rx="25.714287"
       sodipodi:ry="13.571429"
       d="m 952.85717,997.36218 a 25.714287,13.571429 0 1 1 -51.42857,0 25.714287,13.571429 0 1 1 51.42857,0 z"
       transform="matrix(0.32723284,0,0,0.34925781,-269.83223,611.58561)" />
    <path
       transform="matrix(0.32723284,0,0,0.34925781,-269.92573,625.60582)"
       sodipodi:type="arc"
       style="fill:#8d5fd3;fill-opacity:1;stroke:#000006;stroke-width:4;stroke-linecap:round;stroke-miterlimit:4;stroke-opacity:1;stroke-dasharray:none;stroke-dashoffset:0"
       id="path4262-8"
       sodipodi:cx="927.14288"
       sodipodi:cy="997.36218"
       sodipodi:rx="25.714287"
       sodipodi:ry="13.571429"
       d="m 952.85717,997.36218 a 25.714287,13.571429 0 1 1 -51.42857,0 25.714287,13.571429 0 1 1 51.42857,0 z" />
    <path
       style="fill:none;stroke:#000000;stroke-width:1.35226405000000005;stroke-linecap:round;stroke-linejoin:miter;stroke-miterlimit:4;stroke-opacity:1;stroke-dasharray:none"
       d="m 25.022905,959.90348 c 0,14.28859 0,14.46503 0,14.46503 l 0.165282,0"
       id="path4282"
       inkscape:connector-curvature="0" />
    <path
       style="fill:none;stroke:#000000;stroke-width:1.35226405;stroke-linecap:round;stroke-linejoin:round;stroke-miterlimit:4;stroke-opacity:1;stroke-dasharray:none"
       d="m 42.121644,960.25631 c 0,14.2885 0,14.46493 0,14.46493"
       id="path4282-7"
       inkscape:connector-curvature="0"
       sodipodi:nodetypes="cc" />
    <text
       xml:space="preserve"
       style="font-size:40px;font-style:normal;font-weight:normal;line-height:125%;letter-spacing:0px;word-spacing:0px;fill:#8d5fd3;fill-opacity:1;stroke:none;font-family:Bitstream Vera Sans"
       x="235.40968"
       y="1009.8413"
       id="text5769-1"
       sodipodi:linespacing="125%"><tspan
         sodipodi:role="line"
         x="235.40968"
         y="1009.8413"
         id="tspan5779-8"
         style="font-size:11px;font-weight:bold;fill:#8d5fd3">Flavor </tspan><tspan
         sodipodi:role="line"
         x="235.40968"
         y="1023.5912"
         style="font-size:11px;font-weight:bold;fill:#8d5fd3"
         id="tspan3069">cue</tspan></text>
    <flowRoot
       xml:space="preserve"
       id="flowRoot3127"
       style="font-size:40px;font-style:normal;font-weight:normal;line-height:125%;letter-spacing:0px;word-spacing:0px;fill:#000000;fill-opacity:1;stroke:none;font-family:Bitstream Vera Sans"><flowRegion
         id="flowRegion3129"><rect
           id="rect3131"
           width="618.37744"
           height="88.109383"
           x="-6.9842801"
           y="849.28082" /></flowRegion><flowPara
         id="flowPara3133" /></flowRoot>    <path
       transform="matrix(0.32723284,0,0,0.34925781,-269.86588,622.7271)"
       sodipodi:type="arc"
       style="fill:#8d5fd3;fill-opacity:1;stroke:#000006;stroke-width:2.07060146;stroke-linecap:round;stroke-miterlimit:4;stroke-opacity:1;stroke-dasharray:none;stroke-dashoffset:0"
       id="path4262-8-0"
       sodipodi:cx="927.14288"
       sodipodi:cy="997.36218"
       sodipodi:rx="25.714287"
       sodipodi:ry="13.571429"
       d="m 952.85717,997.36218 a 25.714287,13.571429 0 1 1 -51.42857,0 25.714287,13.571429 0 1 1 51.42857,0 z" />
  </g>
</svg>
