<?xml version="1.0" encoding="UTF-8" standalone="no"?>
<!-- Created with Inkscape (http://www.inkscape.org/) -->

<svg
   xmlns:dc="http://purl.org/dc/elements/1.1/"
   xmlns:cc="http://creativecommons.org/ns#"
   xmlns:rdf="http://www.w3.org/1999/02/22-rdf-syntax-ns#"
   xmlns:svg="http://www.w3.org/2000/svg"
   xmlns="http://www.w3.org/2000/svg"
   xmlns:sodipodi="http://sodipodi.sourceforge.net/DTD/sodipodi-0.dtd"
   xmlns:inkscape="http://www.inkscape.org/namespaces/inkscape"
   width="238.00999"
   height="201.97"
   id="svg2"
   version="1.1"
   inkscape:version="0.48.4 r9939"
   sodipodi:docname="fig1.single.rat.licking.svg"
   inkscape:export-filename="/home/hao/Dropbox/grants/2014 menthol R01/fig1.single.rat.licking.png"
   inkscape:export-xdpi="300"
   inkscape:export-ydpi="300">
  <defs
     id="defs4">
    <inkscape:perspective
       sodipodi:type="inkscape:persp3d"
       inkscape:vp_x="1672.9241 : 405.17291 : 1"
       inkscape:vp_y="0 : 542.65383 : 0"
       inkscape:vp_z="2370.6555 : -146.03545 : 1"
       inkscape:persp3d-origin="971.69881 : 233.0722 : 1"
       id="perspective4684" />
  </defs>
  <sodipodi:namedview
     id="base"
     pagecolor="#ffffff"
     bordercolor="#666666"
     borderopacity="1.0"
     inkscape:pageopacity="0.0"
     inkscape:pageshadow="2"
     inkscape:zoom="3.26"
     inkscape:cx="192.07703"
     inkscape:cy="85.370552"
     inkscape:document-units="px"
     inkscape:current-layer="layer1"
     showgrid="false"
     inkscape:window-width="1920"
     inkscape:window-height="1021"
     inkscape:window-x="-5"
     inkscape:window-y="193"
     inkscape:window-maximized="1"
     showguides="true"
     inkscape:guide-bbox="true"
     height="201.97px" />
  <metadata
     id="metadata7">
    <rdf:RDF>
      <cc:Work
         rdf:about="">
        <dc:format>image/svg+xml</dc:format>
        <dc:type
           rdf:resource="http://purl.org/dc/dcmitype/StillImage" />
        <dc:title />
      </cc:Work>
    </rdf:RDF>
  </metadata>
  <g
     inkscape:label="Layer 1"
     inkscape:groupmode="layer"
     id="layer1"
     transform="translate(0,-850.39227)">
    <path
       inkscape:connector-curvature="0"
       id="path5110"
       d=""
       style="fill:none;stroke:#a3a2a3;stroke-width:1.51522887;stroke-linecap:round;stroke-miterlimit:4;stroke-opacity:1;stroke-dasharray:none;stroke-dashoffset:0"
       inkscape:export-xdpi="300"
       inkscape:export-ydpi="300" />
    <path
       inkscape:connector-curvature="0"
       id="path5122"
       d=""
       style="fill:none;stroke:#a3a2a3;stroke-width:1.51522887;stroke-linecap:round;stroke-miterlimit:4;stroke-opacity:1;stroke-dasharray:none;stroke-dashoffset:0"
       inkscape:export-filename="/home/hao/Dropbox/grants/2014 menthol R01/path5110.png"
       inkscape:export-xdpi="300"
       inkscape:export-ydpi="300" />
    <flowRoot
       xml:space="preserve"
       id="flowRoot6046"
       style="font-size:40px;font-style:normal;font-weight:normal;line-height:125%;letter-spacing:0px;word-spacing:0px;fill:#000000;fill-opacity:1;stroke:none;font-family:Bitstream Vera Sans"
       inkscape:export-filename="/home/hao/Dropbox/grants/2014 menthol R01/path5110.png"
       inkscape:export-xdpi="300"
       inkscape:export-ydpi="300"><flowRegion
         id="flowRegion6048"><rect
           id="rect6050"
           width="1277.1428"
           height="1185.7142"
           x="914.28571"
           y="129.50504" /></flowRegion><flowPara
         id="flowPara6052" /></flowRoot>    <path
       sodipodi:nodetypes="cc"
       id="path3170-0-7"
       d="M 220.22617,997.79763 76.0632,998.08917"
       style="fill:#666666;fill-opacity:0.38934434;stroke:#a1a1a1;stroke-width:0.75953686;stroke-linecap:square;stroke-linejoin:miter;stroke-miterlimit:4;stroke-opacity:1;stroke-dasharray:none"
       inkscape:connector-curvature="0"
       inkscape:export-filename="/home/hao/Dropbox/grants/2014 menthol R01/path5110.png"
       inkscape:export-xdpi="300"
       inkscape:export-ydpi="300" />
    <path
       sodipodi:nodetypes="cc"
       id="path2160-2"
       d="m 8.45983,934.36072 0,112.57038"
       style="fill:none;stroke:#000000;stroke-width:1.25;stroke-linecap:round;stroke-linejoin:miter;stroke-miterlimit:4;stroke-opacity:1;stroke-dasharray:none"
       inkscape:connector-curvature="0"
       inkscape:export-filename="/home/hao/Dropbox/grants/2014 menthol R01/path5110.png"
       inkscape:export-xdpi="300"
       inkscape:export-ydpi="300" />
    <path
       sodipodi:nodetypes="cc"
       id="path3164-1"
       d="M 76.14624,885.78287 76.14586,998.3558"
       style="fill:#666666;fill-opacity:0.38934434;stroke:#a1a1a2;stroke-width:0.75953686;stroke-linecap:square;stroke-linejoin:miter;stroke-miterlimit:4;stroke-opacity:1;stroke-dasharray:none"
       inkscape:connector-curvature="0"
       inkscape:export-filename="/home/hao/Dropbox/grants/2014 menthol R01/path5110.png"
       inkscape:export-xdpi="300"
       inkscape:export-ydpi="300" />
    <path
       inkscape:connector-curvature="0"
       sodipodi:nodetypes="cc"
       id="path3174-2"
       d="M 76.46275,884.43721 9.6095,932.94557"
       style="fill:none;stroke:#000000;stroke-width:1.25;stroke-linecap:round;stroke-linejoin:miter;stroke-miterlimit:4;stroke-opacity:1;stroke-dasharray:none"
       inkscape:export-filename="/home/hao/Dropbox/grants/2014 menthol R01/path5110.png"
       inkscape:export-xdpi="300"
       inkscape:export-ydpi="300" />
    <path
       inkscape:connector-curvature="0"
       sodipodi:nodetypes="cc"
       id="path3176-0"
       d="M 76.737774,997.40822 7.2255439,1046.2953"
       style="fill:#4d4d4d;fill-opacity:0.38934434;stroke:#a2a2a3;stroke-width:0.75953686;stroke-linecap:butt;stroke-linejoin:miter;stroke-miterlimit:4;stroke-opacity:1;stroke-dasharray:none"
       inkscape:export-filename="/home/hao/Dropbox/grants/2014 menthol R01/path5110.png"
       inkscape:export-xdpi="300"
       inkscape:export-ydpi="300" />
    <path
       sodipodi:nodetypes="cc"
       id="path3134-4-6"
       d="m 150.62478,933.71908 0,112.57042"
       style="fill:none;stroke:#000000;stroke-width:1.25;stroke-linecap:round;stroke-linejoin:miter;stroke-miterlimit:4;stroke-opacity:1;stroke-dasharray:none"
       inkscape:connector-curvature="0"
       inkscape:export-filename="/home/hao/Dropbox/grants/2014 menthol R01/path5110.png"
       inkscape:export-xdpi="300"
       inkscape:export-ydpi="300" />
    <path
       sodipodi:nodetypes="cc"
       id="path3142-1-4"
       d="m 150.62478,1046.2895 -142.99825,0"
       style="fill:none;stroke:#000000;stroke-width:1.25;stroke-linecap:round;stroke-linejoin:miter;stroke-miterlimit:4;stroke-opacity:1;stroke-dasharray:none"
       inkscape:connector-curvature="0"
       inkscape:export-filename="/home/hao/Dropbox/grants/2014 menthol R01/path5110.png"
       inkscape:export-xdpi="300"
       inkscape:export-ydpi="300" />
    <path
       inkscape:connector-curvature="0"
       sodipodi:nodetypes="cc"
       id="path3154-9-4"
       d="m 220.65049,997.81605 -69.51278,48.88805"
       style="fill:none;stroke:#000000;stroke-width:1.25;stroke-linecap:round;stroke-linejoin:miter;stroke-miterlimit:4;stroke-opacity:1;stroke-dasharray:none"
       inkscape:export-filename="/home/hao/Dropbox/grants/2014 menthol R01/path5110.png"
       inkscape:export-xdpi="300"
       inkscape:export-ydpi="300" />
    <path
       sodipodi:nodetypes="cc"
       id="path3166-4-6"
       d="m 220.22663,885.22484 0,112.57279"
       style="fill:none;stroke:#000000;stroke-width:1.25;stroke-linecap:round;stroke-linejoin:miter;stroke-miterlimit:4;stroke-opacity:1;stroke-dasharray:none"
       inkscape:connector-curvature="0"
       inkscape:export-filename="/home/hao/Dropbox/grants/2014 menthol R01/path5110.png"
       inkscape:export-xdpi="300"
       inkscape:export-ydpi="300" />
    <path
       sodipodi:nodetypes="cc"
       id="path3168-3-8"
       d="M 219.30904,884.29719 76.12193,885.05726"
       style="fill:none;stroke:#000000;stroke-width:1.25;stroke-linecap:round;stroke-linejoin:miter;stroke-miterlimit:4;stroke-opacity:1;stroke-dasharray:none"
       inkscape:connector-curvature="0"
       inkscape:export-filename="/home/hao/Dropbox/grants/2014 menthol R01/path5110.png"
       inkscape:export-xdpi="300"
       inkscape:export-ydpi="300" />
    <path
       inkscape:connector-curvature="0"
       sodipodi:nodetypes="cc"
       id="path3172-6-8"
       d="m 220.08109,884.63891 -69.5132,48.88793"
       style="fill:none;stroke:#000000;stroke-width:1.25;stroke-linecap:round;stroke-linejoin:miter;stroke-miterlimit:4;stroke-opacity:1;stroke-dasharray:none"
       inkscape:export-filename="/home/hao/Dropbox/grants/2014 menthol R01/path5110.png"
       inkscape:export-xdpi="300"
       inkscape:export-ydpi="300" />
    <path
       sodipodi:nodetypes="cc"
       inkscape:connector-curvature="0"
       id="path4780-4"
       d="m 151.15863,1008.0732 c -37.43481,4.56 -33.79183,-134.27556 -33.79183,-134.27556"
       style="fill:none;stroke:#000000;stroke-width:1.26589477;stroke-linecap:butt;stroke-linejoin:miter;stroke-miterlimit:4;stroke-opacity:1;stroke-dasharray:none"
       inkscape:export-filename="/home/hao/Dropbox/grants/2014 menthol R01/path5110.png"
       inkscape:export-xdpi="300"
       inkscape:export-ydpi="300" />
    <path
       sodipodi:nodetypes="cscc"
       inkscape:connector-curvature="0"
       id="path5134-4"
       d="m 174.33754,987.34289 c 0,0 0.83992,0.92856 -0.54488,20.65781 -0.62634,8.9236 -12.16887,4.2627 -12.16887,4.2627 l 0,0"
       style="fill:none;stroke:#aa4400;stroke-width:2.53178954;stroke-linecap:round;stroke-linejoin:miter;stroke-miterlimit:4;stroke-opacity:1;stroke-dasharray:none"
       inkscape:export-filename="/home/hao/Dropbox/grants/2014 menthol R01/path5110.png"
       inkscape:export-xdpi="300"
       inkscape:export-ydpi="300" />
    <path
       sodipodi:nodetypes="cscc"
       inkscape:connector-curvature="0"
       id="path5134-2-0"
       d="m 204.68837,964.78866 c 0,0 0.83992,0.92855 -0.54487,20.65776 -0.62638,8.92368 -12.16892,4.26272 -12.16892,4.26272 l 0,0"
       style="fill:none;stroke:#666666;stroke-width:2.53192282;stroke-linecap:round;stroke-linejoin:miter;stroke-miterlimit:4;stroke-opacity:1;stroke-dasharray:none"
       inkscape:export-filename="/home/hao/Dropbox/grants/2014 menthol R01/path5110.png"
       inkscape:export-xdpi="300"
       inkscape:export-ydpi="300" />
    <path
       sodipodi:nodetypes="ccsc"
       inkscape:connector-curvature="0"
       id="path5154-9"
       d="m 174.80232,999.31399 c 0,-9.55494 -0.22537,-0.54278 -0.22537,-0.54278 0,0 -3.7049,-32.82974 5.41485,-2.20499 9.11979,30.62478 19.66453,25.96978 19.66453,25.96978"
       style="fill:none;stroke:#aa4400;stroke-width:0.84397423;stroke-linecap:butt;stroke-linejoin:miter;stroke-miterlimit:4;stroke-opacity:1;stroke-dasharray:none"
       inkscape:export-filename="/home/hao/Dropbox/grants/2014 menthol R01/path5110.png"
       inkscape:export-xdpi="300"
       inkscape:export-ydpi="300" />
    <path
       d="m 103.18691,1044.6198 c 0.59678,-0.1536 1.28604,-0.6049 1.72288,-0.9303 5.42233,-4.0398 7.37645,-11.061 12.45985,-14.265 1.38203,-0.8711 2.79342,-1.1438 4.58556,-1.147 1.79214,0 3.87672,0.2853 5.68709,-1.6475 0.52698,-0.5626 0.6746,-0.6261 1.26881,-0.5458 0.76931,0.1039 3.86727,-0.2593 4.4407,-0.5206 0.24925,-0.1136 0.96447,-0.083 2.04861,0.088 1.72936,0.2722 1.81007,0.3166 2.88226,1.5846 0.4123,0.4875 0.56407,0.5729 0.67057,0.3773 0.13165,-0.2417 0.0906,-0.7166 -0.11844,-1.3695 -0.0749,-0.234 -0.0303,-0.2725 0.19611,-0.1696 0.16113,0.073 0.38658,0.244 0.50099,0.3795 0.11441,0.1355 0.30161,0.2464 0.41602,0.2464 0.11441,-10e-5 0.25055,0.1328 0.3025,0.295 0.16298,0.5092 0.44958,0.075 0.34887,-0.5285 -0.0836,-0.501 -0.0575,-0.5535 0.2299,-0.4634 0.4882,0.153 0.5613,-0.3789 0.12808,-0.9319 l -0.3741,-0.4775 0.43464,0.1307 c 0.36228,0.109 0.4181,0.079 0.3351,-0.1803 -0.0548,-0.171 -0.30296,-0.437 -0.55155,-0.5911 -0.2486,-0.1542 -0.4348,-0.3806 -0.4138,-0.5033 0.0211,-0.1227 -0.25405,-0.3481 -0.61129,-0.5009 l -0.64949,-0.2778 -0.76721,0.3877 c -0.82571,0.4173 -1.94778,0.7158 -1.94778,0.5181 0,-0.067 0.33786,-0.4854 0.75085,-0.9304 0.41295,-0.4451 0.84836,-1.0277 0.96757,-1.2947 l 0.21677,-0.4855 1.84193,-10e-4 c 1.01308,-9e-4 2.03559,-0.09 2.27228,-0.1977 0.34899,-0.159 0.59893,-0.1103 1.32248,0.2578 0.4907,0.2497 1.34141,0.6813 1.8905,0.9592 0.91886,0.4651 2.32572,1.58 2.56514,2.0328 0.12931,0.2446 0.45047,0.01 0.45047,-0.3294 0,-0.1918 0.14454,-0.2319 0.55089,-0.1531 l 0.55094,0.1073 0,-0.4788 c 0,-0.3858 0.0611,-0.4596 0.31482,-0.3801 0.35901,0.1126 0.38716,0 0.14117,-0.5477 -0.12738,-0.2853 -0.12639,-0.424 0.004,-0.5204 0.36658,-0.2716 -0.4328,-0.7879 -1.50047,-0.9692 -1.01863,-0.173 -1.7926,-0.5625 -1.7926,-0.9021 0,-0.2283 0.54472,-0.7797 0.77024,-0.7797 0.10704,2e-4 0.52644,0.1628 0.93206,0.3618 1.06245,0.5211 2.07552,0.668 2.07552,0.3008 0,-0.1911 0.15576,-0.2852 0.47223,-0.2852 0.31482,0 0.47223,-0.094 0.47223,-0.283 0,-0.1557 0.0708,-0.2831 0.15741,-0.2831 0.3048,0 0.14943,-0.2878 -0.39548,-0.7326 -0.33686,-0.275 -0.89271,-0.4948 -1.43159,-0.566 l -0.88085,-0.1165 0.6316,-0.859 c 0.9207,-1.2521 1.7448,-1.8621 3.06244,-2.2667 0.64235,-0.1973 1.55096,-0.5683 2.01916,-0.8246 0.4682,-0.2563 1.24085,-0.5496 1.71704,-0.6519 0.47615,-0.1022 1.14906,-0.2748 1.4954,-0.3832 0.3463,-0.1084 0.82311,-0.2425 1.0596,-0.2975 0.23647,-0.055 0.66174,-0.3325 0.94501,-0.6163 0.28322,-0.2839 0.6564,-0.6102 0.82928,-0.7251 0.62772,-0.4172 0.47154,-0.8369 -0.88772,-2.3851 -1.84907,-2.1062 -3.33737,-3.2499 -5.03502,-3.8694 -1.08729,-0.3968 -1.39735,-0.5858 -1.39735,-0.8517 0,-0.4612 -0.5241,-1.6638 -0.90515,-2.0768 -0.3693,-0.4004 -0.50456,-0.2598 -0.94439,0.9816 l -0.28944,0.8168 -0.46524,-0.6031 c -1.02486,-1.3287 -2.52921,-1.7417 -3.20465,-0.8798 -0.19496,0.2487 -0.44121,0.8598 -0.54722,1.358 l -0.1928,0.906 -0.99733,0.7311 c -0.54852,0.4021 -1.11151,0.7307 -1.25111,0.7303 -0.13956,-3e-4 -0.64773,-0.172 -1.12925,-0.3813 -3.12702,-1.3592 -9.29648,-0.6847 -12.74054,1.393 -3.01568,1.8192 -4.71368,4.3471 -5.53498,8.2402 -0.27981,1.3263 -0.3157,1.9395 -0.25132,4.2951 0.0479,1.7533 0.17649,3.2134 0.35521,4.034 l 0.28011,1.2862 c 0,0 -0.21557,0.3154 -0.75207,1.1006 -0.53654,0.7852 -1.69712,0.9295 -3.62997,0.8984 -1.93281,-0.031 -3.54285,0.6119 -5.02857,1.7014 -4.02092,2.9485 -5.98471,8.826 -9.61698,12.4271 -1.55119,1.5378 -2.12516,2.5424 -5.11923,3.8399 -0.34534,0.1497 -0.65928,0.2004 -0.65928,0.2909 0,0.2297 1.16384,0.1778 2.24157,-0.1 z"
       id="path2989-0-6"
       style="fill:#030303"
       inkscape:connector-curvature="0"
       inkscape:export-filename="/home/hao/Dropbox/grants/2014 menthol R01/path5110.png"
       inkscape:export-xdpi="300"
       inkscape:export-ydpi="300" />
    <path
       sodipodi:nodetypes="cc"
       id="path3140-1-6"
       d="M 150.62478,933.71908 8.67202,934.09897"
       style="fill:none;stroke:#000000;stroke-width:1.25;stroke-linecap:square;stroke-linejoin:miter;stroke-miterlimit:4;stroke-opacity:1;stroke-dasharray:none"
       inkscape:connector-curvature="0"
       inkscape:export-filename="/home/hao/Dropbox/grants/2014 menthol R01/path5110.png"
       inkscape:export-xdpi="300"
       inkscape:export-ydpi="300" />
    <text
       xml:space="preserve"
       style="font-size:40px;font-style:normal;font-weight:normal;line-height:125%;letter-spacing:0px;word-spacing:0px;fill:#000000;fill-opacity:1;stroke:none;font-family:Bitstream Vera Sans"
       x="115.11606"
       y="867.59131"
       id="text5749-6"
       sodipodi:linespacing="125%"
       inkscape:export-filename="/home/hao/Dropbox/grants/2014 menthol R01/path5110.png"
       inkscape:export-xdpi="300"
       inkscape:export-ydpi="300"><tspan
         sodipodi:role="line"
         id="tspan5751-8"
         x="115.11606"
         y="867.59131"
         style="font-size:11px">Nicotine</tspan></text>
    <text
       xml:space="preserve"
       style="font-size:40px;font-style:normal;font-weight:normal;line-height:125%;letter-spacing:0px;word-spacing:0px;fill:#000000;fill-opacity:1;stroke:none;font-family:Bitstream Vera Sans"
       x="189.59973"
       y="941.74872"
       id="text5763-0"
       sodipodi:linespacing="125%"
       inkscape:export-filename="/home/hao/Dropbox/grants/2014 menthol R01/path5110.png"
       inkscape:export-xdpi="300"
       inkscape:export-ydpi="300"><tspan
         sodipodi:role="line"
         id="tspan5765-0"
         x="189.59973"
         y="941.74872"
         style="font-size:11px">Inactive</tspan><tspan
         sodipodi:role="line"
         x="189.59973"
         y="955.49872"
         id="tspan5767-3"
         style="font-size:11px">spout</tspan></text>
    <text
       xml:space="preserve"
       style="font-size:40px;font-style:normal;font-weight:normal;line-height:125%;letter-spacing:0px;word-spacing:0px;fill:#000000;fill-opacity:1;stroke:none;font-family:Bitstream Vera Sans"
       x="153.20764"
       y="965.95093"
       id="text5781-3"
       sodipodi:linespacing="125%"
       inkscape:export-filename="/home/hao/Dropbox/grants/2014 menthol R01/path5110.png"
       inkscape:export-xdpi="300"
       inkscape:export-ydpi="300"><tspan
         sodipodi:role="line"
         id="tspan5783-5"
         x="153.20764"
         y="965.95093"
         style="font-size:11px">Active </tspan><tspan
         sodipodi:role="line"
         x="153.20764"
         y="979.70093"
         style="font-size:11px"
         id="tspan5785-0">spout</tspan></text>
    <text
       xml:space="preserve"
       style="font-size:40px;font-style:normal;font-weight:normal;line-height:125%;letter-spacing:0px;word-spacing:0px;fill:#000000;fill-opacity:1;stroke:none;font-family:Bitstream Vera Sans"
       x="179.79431"
       y="1035.8606"
       id="text5769-1-6"
       sodipodi:linespacing="125%"
       inkscape:export-filename="/home/hao/Dropbox/grants/2014 menthol R01/path5110.png"
       inkscape:export-xdpi="300"
       inkscape:export-ydpi="300"><tspan
         sodipodi:role="line"
         x="179.79431"
         y="1035.8606"
         id="tspan5773-9-0"
         style="font-size:11px">Flavor</tspan><tspan
         sodipodi:role="line"
         x="179.79431"
         y="1049.6106"
         id="tspan5779-8-5"
         style="font-size:11px">cue</tspan></text>
  </g>
</svg>
